<svg xmlns="http://www.w3.org/2000/svg" xmlns:xlink="http://www.w3.org/1999/xlink" width="500" zoomAndPan="magnify" viewBox="0 0 375 374.999991" height="500" preserveAspectRatio="xMidYMid meet" version="1.0"><defs><g/><clipPath id="bd6426d31d"><path d="M 96 164 L 279.875 164 L 279.875 190 L 96 190 Z M 96 164 " clip-rule="nonzero"/></clipPath><clipPath id="5342cb7eef"><path d="M 146 99.097656 L 232 99.097656 L 232 170 L 146 170 Z M 146 99.097656 " clip-rule="nonzero"/></clipPath><clipPath id="febdc9c9f3"><path d="M 115.335938 175.65625 L 262.632812 175.65625 L 262.632812 221.964844 L 115.335938 221.964844 Z M 115.335938 175.65625 " clip-rule="nonzero"/></clipPath></defs><g clip-path="url(#bd6426d31d)"><path fill="#231f20" d="M 278.46875 180.636719 C 275.90625 173.835938 271.070312 169.785156 263.800781 168.757812 C 257.960938 167.933594 252.125 167.097656 246.289062 166.269531 C 243.972656 165.9375 241.683594 165.527344 239.421875 165.027344 L 239.421875 171.15625 C 243.464844 171.75 247.53125 172.253906 251.578125 172.859375 C 255.601562 173.457031 259.617188 174.097656 263.625 174.75 C 266.308594 175.1875 267.570312 177.265625 269.054688 179.503906 L 106.140625 179.503906 C 107.632812 177.226562 108.914062 175.167969 111.609375 174.734375 C 114.917969 174.195312 118.234375 173.675781 121.546875 173.160156 C 127.320312 172.257812 133.132812 171.511719 138.898438 170.566406 L 138.898438 164.285156 C 135.09375 165.285156 131.214844 165.972656 127.316406 166.535156 C 122.03125 167.292969 116.742188 168.011719 111.453125 168.726562 C 105.675781 169.507812 101.28125 172.34375 98.351562 177.421875 C 96.972656 179.824219 95.882812 182.296875 96.484375 185.164062 C 96.886719 187.070312 97.980469 188.363281 99.933594 188.871094 C 102.890625 189.644531 105.699219 187.570312 105.542969 184.6875 C 105.511719 184.179688 105.359375 183.6875 105.230469 183.023438 C 107.375 183.023438 109.417969 183.007812 111.453125 183.042969 C 111.636719 183.046875 111.96875 183.3125 111.980469 183.472656 C 112.058594 184.46875 112.160156 185.480469 112.058594 186.460938 C 111.976562 187.265625 111.375 187.777344 110.527344 187.402344 C 109.757812 187.070312 109.855469 186.511719 110.296875 185.851562 C 110.800781 185.09375 110.457031 184.589844 109.527344 184.550781 C 108.496094 184.507812 107.726562 185.382812 107.691406 186.652344 C 107.652344 188.066406 108.542969 189.289062 109.96875 189.761719 C 111.5 190.269531 113.25 189.808594 113.957031 188.359375 C 114.5625 187.125 114.917969 185.703125 115.066406 184.328125 C 115.191406 183.25 115.511719 182.992188 116.542969 182.992188 C 130.730469 183 144.925781 182.941406 159.113281 182.9375 C 171.476562 182.9375 183.835938 183 196.195312 183.003906 C 216.960938 183.019531 237.726562 183.019531 258.488281 182.984375 C 259.675781 182.984375 259.960938 183.335938 260.058594 184.472656 C 260.175781 185.746094 260.46875 187.078125 261.042969 188.203125 C 261.996094 190.074219 264.363281 190.496094 266.070312 189.316406 C 267.539062 188.296875 267.925781 185.828125 266.65625 184.960938 C 266.429688 184.808594 266.125 184.769531 265.796875 184.769531 C 265.144531 184.765625 264.660156 185.46875 264.964844 186.050781 C 265.285156 186.65625 265.203125 187.195312 264.652344 187.34375 C 264.320312 187.4375 263.894531 187.308594 263.59375 187.179688 C 263.28125 187.042969 263.28125 186.816406 263.265625 186.5 C 263.234375 186.097656 263.15625 185.695312 263.144531 185.292969 C 263.128906 184.691406 263.152344 184.09375 263.214844 183.492188 C 263.265625 183.054688 264.171875 183.117188 264.5 183.085938 C 265.007812 183.046875 265.839844 183.007812 266.351562 183.007812 L 270.125 183.007812 C 270.039062 183.472656 269.984375 183.71875 269.933594 183.960938 C 269.398438 186.84375 271.660156 189.59375 274.316406 189.222656 C 275.945312 188.996094 277.277344 188.222656 278.152344 186.792969 C 279.363281 184.804688 279.238281 182.683594 278.46875 180.636719 " fill-opacity="1" fill-rule="nonzero"/></g><path fill="#231f20" d="M 236.816406 164.40625 C 235.898438 164.171875 234.980469 163.917969 234.066406 163.65625 L 234.066406 170.300781 C 234.980469 170.464844 235.898438 170.613281 236.816406 170.761719 L 236.816406 164.40625 " fill-opacity="1" fill-rule="nonzero"/><path fill="#231f20" d="M 144.246094 162.648438 C 143.875 162.773438 143.507812 162.902344 143.144531 163.027344 C 142.597656 163.207031 142.050781 163.382812 141.5 163.550781 L 141.5 170.121094 C 142.421875 169.960938 143.332031 169.796875 144.246094 169.621094 L 144.246094 162.648438 " fill-opacity="1" fill-rule="nonzero"/><g clip-path="url(#5342cb7eef)"><path fill="#231f20" d="M 177.511719 143.777344 C 177.511719 142.785156 178.3125 141.988281 179.296875 141.988281 L 192.554688 141.988281 C 193.546875 141.988281 194.347656 142.785156 194.347656 143.777344 L 194.347656 147.859375 C 194.347656 148.847656 193.546875 149.648438 192.554688 149.648438 L 179.296875 149.648438 C 178.3125 149.648438 177.511719 148.847656 177.511719 147.859375 Z M 174.609375 154.585938 C 176.253906 153.367188 178.136719 152.976562 180.207031 153.015625 C 184.457031 153.089844 188.746094 153.320312 192.957031 152.910156 C 197.394531 152.476562 200.898438 154.039062 203.957031 156.828125 C 211.820312 164.003906 221.265625 167.792969 231.46875 169.820312 L 231.46875 162.832031 C 228.441406 161.828125 225.476562 160.617188 222.582031 159.191406 C 218.5625 157.199219 214.566406 155.179688 211.714844 151.523438 C 209.320312 148.441406 206.457031 145.871094 203.246094 143.625 C 201.5 142.394531 199.640625 141.308594 197.628906 140.566406 C 196.613281 140.191406 195.566406 139.90625 194.492188 139.730469 C 193.726562 139.605469 192.511719 139.761719 192.195312 138.847656 C 191.675781 137.367188 191.511719 135.832031 192.175781 134.367188 C 193.472656 131.480469 194.734375 128.566406 196.199219 125.765625 C 198.179688 121.964844 200.433594 118.304688 201.636719 114.140625 C 203.410156 107.949219 200.546875 102.390625 194.488281 100.296875 C 191.605469 99.296875 188.679688 99.042969 185.675781 99.726562 C 181.589844 100.648438 178.566406 102.925781 177.074219 106.808594 C 176.105469 109.332031 175.6875 112.050781 174.941406 114.660156 C 174.746094 115.328125 174.375 116.050781 173.867188 116.507812 C 172.871094 117.394531 172.539062 118.464844 173.179688 119.550781 C 173.792969 120.609375 174.84375 120.867188 176.097656 120.273438 C 177.765625 119.476562 178.71875 118.058594 179.238281 116.386719 C 179.941406 114.148438 180.40625 111.832031 181.128906 109.597656 C 182.117188 106.542969 184.523438 104.765625 187.75 104.644531 C 188.890625 104.605469 190.078125 104.6875 191.195312 104.917969 C 195.453125 105.800781 197.160156 108.867188 195.671875 112.925781 C 195.253906 114.082031 194.765625 115.226562 194.15625 116.289062 C 192.027344 119.972656 189.75 123.558594 187.691406 127.28125 C 186.40625 129.589844 185.199219 131.941406 183.988281 134.292969 C 183.398438 135.449219 182.800781 136.597656 182.203125 137.746094 C 181.722656 138.648438 181.460938 139.261719 180.421875 139.566406 C 178.761719 140.0625 177.15625 140.246094 175.605469 141.050781 C 174.007812 141.875 172.574219 142.949219 171.140625 144.003906 C 169.179688 145.453125 167.339844 147.074219 165.699219 148.875 C 163.871094 150.886719 162.152344 153.078125 160.03125 154.726562 C 156.042969 157.824219 151.535156 159.960938 146.851562 161.710938 L 146.851562 169.09375 C 154.507812 167.441406 161.71875 164.429688 168.0625 159.644531 C 170.261719 157.980469 172.390625 156.226562 174.609375 154.585938 " fill-opacity="1" fill-rule="nonzero"/></g><g clip-path="url(#febdc9c9f3)"><path fill="#fffafa" d="M 115.335938 175.65625 L 262.585938 175.65625 L 262.585938 221.964844 L 115.335938 221.964844 Z M 115.335938 175.65625 " fill-opacity="1" fill-rule="nonzero"/></g><g fill="#000000" fill-opacity="1"><g transform="translate(114.546581, 210.391803)"><g><path d="M 18.1875 -23.1875 L 18.1875 0 L 14.078125 0 L 14.078125 -10.4375 L 6.21875 -10.4375 L 6.21875 0 L 2.109375 0 L 2.109375 -23.1875 L 6.21875 -23.1875 L 6.21875 -13.03125 L 14.078125 -13.03125 L 14.078125 -23.1875 Z M 18.1875 -23.1875 "/></g></g></g><g fill="#000000" fill-opacity="1"><g transform="translate(133.968152, 210.391803)"><g><path d="M 10.21875 -23.890625 C 16.21875 -23.890625 19.21875 -19.894531 19.21875 -11.90625 C 19.21875 -3.457031 16.21875 0.765625 10.21875 0.765625 C 6.9375 0.765625 4.609375 -0.320312 3.234375 -2.5 C 1.867188 -4.675781 1.1875 -7.671875 1.1875 -11.484375 C 1.1875 -15.234375 1.894531 -18.238281 3.3125 -20.5 C 4.726562 -22.757812 7.03125 -23.890625 10.21875 -23.890625 Z M 10.21875 -1.6875 C 12.09375 -1.6875 13.320312 -2.613281 13.90625 -4.46875 C 14.488281 -6.332031 14.78125 -8.726562 14.78125 -11.65625 C 14.78125 -14.445312 14.476562 -16.769531 13.875 -18.625 C 13.269531 -20.488281 12.050781 -21.421875 10.21875 -21.421875 C 8.375 -21.421875 7.144531 -20.488281 6.53125 -18.625 C 5.925781 -16.769531 5.625 -14.445312 5.625 -11.65625 C 5.625 -8.726562 5.914062 -6.332031 6.5 -4.46875 C 7.082031 -2.613281 8.320312 -1.6875 10.21875 -1.6875 Z M 10.21875 -1.6875 "/></g></g></g><g fill="#000000" fill-opacity="1"><g transform="translate(153.495088, 210.391803)"><g><path d="M 2.109375 -23.1875 L 6.21875 -23.1875 L 6.21875 -2.59375 L 13.875 -2.59375 L 13.625 0 L 2.109375 0 Z M 2.109375 -23.1875 "/></g></g></g><g fill="#000000" fill-opacity="1"><g transform="translate(166.665118, 210.391803)"><g><path d="M 11.65625 -23.1875 L 17.671875 0 L 13.515625 0 L 12.125 -5.90625 L 5.234375 -5.90625 L 3.859375 0 L 0 0 L 6.421875 -23.1875 Z M 5.859375 -8.5 L 11.515625 -8.5 L 8.671875 -20.546875 Z M 5.859375 -8.5 "/></g></g></g><g fill="#000000" fill-opacity="1"><g transform="translate(183.452615, 210.391803)"><g><path d="M 28.09375 -23.1875 L 22.40625 0 L 17.140625 0 L 13.734375 -16.65625 L 10.328125 0 L 5.0625 0 L -0.171875 -23.1875 L 3.96875 -23.1875 L 8.078125 -2.640625 L 12.15625 -23.1875 L 16.046875 -23.1875 L 20.15625 -2.640625 L 24.234375 -23.1875 Z M 28.09375 -23.1875 "/></g></g></g><g fill="#000000" fill-opacity="1"><g transform="translate(210.495448, 210.391803)"><g><path d="M 13.875 -23.1875 L 13.875 -20.578125 L 6.21875 -20.578125 L 6.21875 -13.203125 L 12.828125 -13.203125 L 12.828125 -10.609375 L 6.21875 -10.609375 L 6.21875 -2.59375 L 14.359375 -2.59375 L 14.125 0 L 2.109375 0 L 2.109375 -23.1875 Z M 13.875 -23.1875 "/></g></g></g><g fill="#000000" fill-opacity="1"><g transform="translate(225.000073, 210.391803)"><g><path d="M 11.65625 -23.1875 L 17.671875 0 L 13.515625 0 L 12.125 -5.90625 L 5.234375 -5.90625 L 3.859375 0 L 0 0 L 6.421875 -23.1875 Z M 5.859375 -8.5 L 11.515625 -8.5 L 8.671875 -20.546875 Z M 5.859375 -8.5 "/></g></g></g><g fill="#000000" fill-opacity="1"><g transform="translate(241.78757, 210.391803)"><g><path d="M 17.03125 -16.828125 C 17.03125 -15.234375 16.625 -13.875 15.8125 -12.75 C 15.007812 -11.625 13.90625 -10.863281 12.5 -10.46875 L 18.609375 0 L 14.125 0 L 7.875 -11.09375 C 7.726562 -11.351562 7.65625 -11.585938 7.65625 -11.796875 C 9.414062 -11.796875 10.71875 -12.1875 11.5625 -12.96875 C 12.40625 -13.757812 12.828125 -15 12.828125 -16.6875 C 12.828125 -18.09375 12.46875 -19.140625 11.75 -19.828125 C 11.03125 -20.515625 9.9375 -20.859375 8.46875 -20.859375 C 7.738281 -20.859375 6.988281 -20.800781 6.21875 -20.6875 L 6.21875 0 L 2.109375 0 L 2.109375 -23.046875 C 4.867188 -23.234375 7.070312 -23.328125 8.71875 -23.328125 C 14.257812 -23.328125 17.03125 -21.160156 17.03125 -16.828125 Z M 17.03125 -16.828125 "/></g></g></g><g fill="#000000" fill-opacity="1"><g transform="translate(136.899926, 225.478794)"><g><path d="M 1.703125 -6.78125 C 1.515625 -6.84375 1.367188 -6.875 1.265625 -6.875 C 1.109375 -6.875 0.984375 -6.863281 0.890625 -6.84375 C 0.796875 -6.832031 0.742188 -6.832031 0.734375 -6.84375 C 0.722656 -6.863281 0.71875 -6.890625 0.71875 -6.921875 C 0.71875 -6.953125 0.726562 -6.984375 0.75 -7.015625 C 0.769531 -7.046875 0.796875 -7.0625 0.828125 -7.0625 C 1.265625 -7.164062 1.863281 -7.21875 2.625 -7.21875 L 4.828125 -3.609375 L 4.875 -3.609375 L 6.984375 -7.21875 C 7.734375 -7.21875 8.328125 -7.164062 8.765625 -7.0625 C 8.835938 -7.050781 8.875 -7 8.875 -6.90625 C 8.875 -6.851562 8.828125 -6.832031 8.734375 -6.84375 C 8.640625 -6.863281 8.515625 -6.875 8.359375 -6.875 C 8.203125 -6.875 8.035156 -6.835938 7.859375 -6.765625 L 8.703125 -0.765625 C 8.742188 -0.453125 8.835938 -0.257812 8.984375 -0.1875 C 9.023438 -0.175781 9.046875 -0.140625 9.046875 -0.078125 C 9.046875 -0.0234375 9.023438 0 8.984375 0 L 7.53125 0 C 7.488281 0 7.46875 -0.0234375 7.46875 -0.078125 C 7.46875 -0.128906 7.472656 -0.160156 7.484375 -0.171875 C 7.503906 -0.179688 7.523438 -0.191406 7.546875 -0.203125 C 7.617188 -0.234375 7.679688 -0.316406 7.734375 -0.453125 C 7.796875 -0.597656 7.828125 -0.695312 7.828125 -0.75 C 7.828125 -0.800781 7.828125 -0.832031 7.828125 -0.84375 L 7.125 -6.0625 L 7.09375 -6.0625 L 4.921875 -2.265625 C 4.910156 -2.253906 4.859375 -2.25 4.765625 -2.25 C 4.671875 -2.257812 4.617188 -2.265625 4.609375 -2.265625 L 2.34375 -6.0625 L 2.3125 -6.0625 L 1.65625 -0.84375 C 1.644531 -0.75 1.664062 -0.640625 1.71875 -0.515625 C 1.769531 -0.390625 1.8125 -0.304688 1.84375 -0.265625 C 1.882812 -0.234375 1.921875 -0.207031 1.953125 -0.1875 C 1.992188 -0.175781 2.015625 -0.140625 2.015625 -0.078125 C 2.015625 -0.0234375 1.992188 0 1.953125 0 L 0.625 0 C 0.582031 0 0.5625 -0.0234375 0.5625 -0.078125 C 0.5625 -0.128906 0.566406 -0.160156 0.578125 -0.171875 C 0.597656 -0.179688 0.617188 -0.191406 0.640625 -0.203125 C 0.773438 -0.265625 0.863281 -0.453125 0.90625 -0.765625 Z M 1.703125 -6.78125 "/></g></g></g><g fill="#000000" fill-opacity="1"><g transform="translate(146.857171, 225.478794)"><g><path d="M 1.421875 -3.5 C 1.234375 -3.382812 1.09375 -3.226562 1 -3.03125 C 0.914062 -2.832031 0.875 -2.582031 0.875 -2.28125 C 0.875 -1.988281 0.957031 -1.691406 1.125 -1.390625 C 1.289062 -1.085938 1.515625 -0.847656 1.796875 -0.671875 C 2.085938 -0.503906 2.375 -0.421875 2.65625 -0.421875 C 2.945312 -0.421875 3.179688 -0.484375 3.359375 -0.609375 C 3.546875 -0.742188 3.6875 -0.910156 3.78125 -1.109375 C 3.875 -1.316406 3.921875 -1.546875 3.921875 -1.796875 C 3.921875 -2.316406 3.753906 -2.757812 3.421875 -3.125 C 3.097656 -3.5 2.65625 -3.6875 2.09375 -3.6875 C 1.84375 -3.6875 1.617188 -3.625 1.421875 -3.5 Z M 0.890625 -0.53125 C 0.691406 -0.71875 0.53125 -0.941406 0.40625 -1.203125 C 0.289062 -1.472656 0.234375 -1.785156 0.234375 -2.140625 C 0.234375 -2.503906 0.328125 -2.851562 0.515625 -3.1875 C 0.703125 -3.53125 0.96875 -3.796875 1.3125 -3.984375 C 1.65625 -4.179688 2.015625 -4.28125 2.390625 -4.28125 C 3.066406 -4.28125 3.601562 -4.066406 4 -3.640625 C 4.40625 -3.210938 4.609375 -2.691406 4.609375 -2.078125 C 4.617188 -1.472656 4.410156 -0.960938 3.984375 -0.546875 C 3.554688 -0.128906 3.019531 0.078125 2.375 0.078125 C 2.09375 0.078125 1.820312 0.0234375 1.5625 -0.078125 C 1.3125 -0.191406 1.085938 -0.34375 0.890625 -0.53125 Z M 0.890625 -0.53125 "/></g></g></g><g fill="#000000" fill-opacity="1"><g transform="translate(152.024067, 225.478794)"><g><path d="M 3.1875 -6.46875 L 3.1875 -6.546875 C 3.1875 -6.554688 3.195312 -6.566406 3.21875 -6.578125 C 3.238281 -6.585938 3.25 -6.59375 3.25 -6.59375 L 4.03125 -7.1875 C 4.050781 -7.195312 4.082031 -7.203125 4.125 -7.203125 C 4.175781 -7.203125 4.210938 -7.191406 4.234375 -7.171875 C 4.265625 -7.160156 4.28125 -7.125 4.28125 -7.0625 C 4.28125 -4.425781 4.285156 -2.382812 4.296875 -0.9375 C 4.304688 -0.882812 4.300781 -0.863281 4.28125 -0.875 C 4.28125 -0.875 4.285156 -0.863281 4.296875 -0.84375 C 4.316406 -0.832031 4.351562 -0.820312 4.40625 -0.8125 C 4.457031 -0.8125 4.492188 -0.804688 4.515625 -0.796875 C 4.535156 -0.785156 4.546875 -0.75 4.546875 -0.6875 C 4.546875 -0.632812 4.535156 -0.601562 4.515625 -0.59375 L 3.796875 0 C 3.785156 0.0078125 3.75 0.015625 3.6875 0.015625 C 3.625 0.015625 3.582031 0.0078125 3.5625 0 C 3.550781 -0.0195312 3.546875 -0.0390625 3.546875 -0.0625 C 3.546875 -0.0820312 3.546875 -0.101562 3.546875 -0.125 C 3.554688 -0.15625 3.554688 -0.191406 3.546875 -0.234375 C 3.535156 -0.273438 3.523438 -0.296875 3.515625 -0.296875 C 3.503906 -0.296875 3.476562 -0.285156 3.4375 -0.265625 L 3.328125 -0.1875 C 3.023438 -0.0078125 2.71875 0.078125 2.40625 0.078125 C 2.101562 0.078125 1.820312 0.0234375 1.5625 -0.078125 C 1.3125 -0.191406 1.085938 -0.34375 0.890625 -0.53125 C 0.691406 -0.71875 0.53125 -0.941406 0.40625 -1.203125 C 0.289062 -1.472656 0.234375 -1.785156 0.234375 -2.140625 C 0.234375 -2.503906 0.328125 -2.851562 0.515625 -3.1875 C 0.703125 -3.53125 0.96875 -3.796875 1.3125 -3.984375 C 1.65625 -4.179688 2.054688 -4.28125 2.515625 -4.28125 C 2.691406 -4.28125 2.878906 -4.234375 3.078125 -4.140625 C 3.273438 -4.054688 3.425781 -3.96875 3.53125 -3.875 L 3.578125 -3.875 C 3.578125 -4.820312 3.570312 -5.566406 3.5625 -6.109375 C 3.5625 -6.203125 3.535156 -6.269531 3.484375 -6.3125 C 3.441406 -6.351562 3.390625 -6.375 3.328125 -6.375 C 3.273438 -6.375 3.242188 -6.382812 3.234375 -6.40625 C 3.203125 -6.414062 3.1875 -6.4375 3.1875 -6.46875 Z M 3.546875 -1 L 3.5625 -2.90625 C 3.425781 -3.15625 3.226562 -3.347656 2.96875 -3.484375 C 2.707031 -3.617188 2.414062 -3.6875 2.09375 -3.6875 C 1.675781 -3.6875 1.335938 -3.46875 1.078125 -3.03125 C 0.941406 -2.800781 0.875 -2.582031 0.875 -2.375 C 0.875 -1.832031 1.039062 -1.390625 1.375 -1.046875 C 1.71875 -0.710938 2.15625 -0.546875 2.6875 -0.546875 C 2.832031 -0.546875 2.984375 -0.585938 3.140625 -0.671875 C 3.304688 -0.765625 3.441406 -0.875 3.546875 -1 Z M 3.546875 -1 "/></g></g></g><g fill="#000000" fill-opacity="1"><g transform="translate(157.142621, 225.478794)"><g><path d="M 3.390625 -3.046875 C 3.210938 -3.546875 2.835938 -3.796875 2.265625 -3.796875 C 2.003906 -3.796875 1.765625 -3.722656 1.546875 -3.578125 C 1.328125 -3.441406 1.160156 -3.265625 1.046875 -3.046875 C 0.929688 -2.835938 0.875 -2.632812 0.875 -2.4375 C 0.875 -2.25 0.878906 -2.160156 0.890625 -2.171875 L 3.375 -3.03125 L 3.375 -3.0625 Z M 0.984375 -1.703125 C 1.109375 -1.359375 1.320312 -1.085938 1.625 -0.890625 C 1.925781 -0.691406 2.265625 -0.59375 2.640625 -0.59375 C 3.128906 -0.59375 3.570312 -0.820312 3.96875 -1.28125 C 4.03125 -1.332031 4.117188 -1.300781 4.234375 -1.1875 C 4.242188 -1.175781 4.242188 -1.160156 4.234375 -1.140625 C 3.898438 -0.679688 3.640625 -0.382812 3.453125 -0.25 C 3.140625 -0.03125 2.78125 0.078125 2.375 0.078125 C 2.09375 0.078125 1.820312 0.0195312 1.5625 -0.09375 C 1.03125 -0.320312 0.648438 -0.695312 0.421875 -1.21875 C 0.296875 -1.476562 0.234375 -1.785156 0.234375 -2.140625 C 0.234375 -2.503906 0.328125 -2.851562 0.515625 -3.1875 C 0.703125 -3.53125 0.96875 -3.796875 1.3125 -3.984375 C 1.65625 -4.179688 2.054688 -4.28125 2.515625 -4.28125 C 3.054688 -4.28125 3.546875 -4.023438 3.984375 -3.515625 C 4.191406 -3.253906 4.296875 -3.050781 4.296875 -2.90625 Z M 0.984375 -1.703125 "/></g></g></g><g fill="#000000" fill-opacity="1"><g transform="translate(162.050224, 225.478794)"><g><path d="M 0.375 -3.453125 L 0.390625 -3.53125 C 0.390625 -3.550781 0.394531 -3.566406 0.40625 -3.578125 C 0.425781 -3.585938 0.4375 -3.59375 0.4375 -3.59375 L 1.234375 -4.171875 C 1.242188 -4.179688 1.273438 -4.1875 1.328125 -4.1875 C 1.378906 -4.1875 1.414062 -4.179688 1.4375 -4.171875 C 1.457031 -4.160156 1.46875 -4.117188 1.46875 -4.046875 L 1.46875 -3.296875 C 1.488281 -3.328125 1.515625 -3.359375 1.546875 -3.390625 C 1.753906 -3.648438 1.972656 -3.851562 2.203125 -4 C 2.429688 -4.144531 2.691406 -4.21875 2.984375 -4.21875 C 3.078125 -4.21875 3.128906 -4.207031 3.140625 -4.1875 C 3.191406 -4.050781 3.234375 -3.921875 3.265625 -3.796875 L 3.390625 -3.28125 C 3.398438 -3.25 3.378906 -3.21875 3.328125 -3.1875 C 3.273438 -3.15625 3.234375 -3.140625 3.203125 -3.140625 C 3.171875 -3.148438 3.140625 -3.179688 3.109375 -3.234375 L 3.0625 -3.3125 C 2.90625 -3.457031 2.722656 -3.515625 2.515625 -3.484375 C 2.304688 -3.453125 2.109375 -3.375 1.921875 -3.25 C 1.734375 -3.125 1.59375 -2.992188 1.5 -2.859375 C 1.5 -2.847656 1.492188 -2.832031 1.484375 -2.8125 C 1.472656 -2.800781 1.46875 -2.789062 1.46875 -2.78125 L 1.46875 -0.765625 C 1.46875 -0.753906 1.46875 -0.722656 1.46875 -0.671875 C 1.46875 -0.628906 1.46875 -0.597656 1.46875 -0.578125 C 1.488281 -0.390625 1.550781 -0.273438 1.65625 -0.234375 C 1.757812 -0.191406 1.8125 -0.15625 1.8125 -0.125 C 1.8125 -0.0390625 1.796875 0 1.765625 0 L 0.453125 0 C 0.421875 0 0.40625 -0.0234375 0.40625 -0.078125 C 0.40625 -0.128906 0.414062 -0.160156 0.4375 -0.171875 C 0.457031 -0.191406 0.484375 -0.207031 0.515625 -0.21875 C 0.554688 -0.238281 0.585938 -0.257812 0.609375 -0.28125 C 0.648438 -0.320312 0.679688 -0.367188 0.703125 -0.421875 C 0.734375 -0.484375 0.75 -0.550781 0.75 -0.625 C 0.75 -0.707031 0.75 -0.753906 0.75 -0.765625 L 0.75 -3.09375 C 0.75 -3.1875 0.722656 -3.253906 0.671875 -3.296875 C 0.628906 -3.335938 0.582031 -3.359375 0.53125 -3.359375 C 0.476562 -3.359375 0.441406 -3.367188 0.421875 -3.390625 C 0.390625 -3.410156 0.375 -3.429688 0.375 -3.453125 Z M 0.375 -3.453125 "/></g></g></g><g fill="#000000" fill-opacity="1"><g transform="translate(165.837147, 225.478794)"><g><path d="M 0.453125 0 C 0.410156 0 0.390625 -0.0234375 0.390625 -0.078125 C 0.390625 -0.128906 0.398438 -0.160156 0.421875 -0.171875 C 0.453125 -0.191406 0.484375 -0.207031 0.515625 -0.21875 C 0.554688 -0.238281 0.585938 -0.257812 0.609375 -0.28125 C 0.703125 -0.363281 0.742188 -0.460938 0.734375 -0.578125 C 0.734375 -0.691406 0.734375 -0.753906 0.734375 -0.765625 L 0.734375 -3.09375 C 0.734375 -3.1875 0.707031 -3.253906 0.65625 -3.296875 C 0.613281 -3.335938 0.566406 -3.359375 0.515625 -3.359375 C 0.460938 -3.359375 0.425781 -3.363281 0.40625 -3.375 C 0.394531 -3.394531 0.382812 -3.410156 0.375 -3.421875 C 0.375 -3.429688 0.375 -3.441406 0.375 -3.453125 C 0.375 -3.460938 0.375 -3.472656 0.375 -3.484375 C 0.375 -3.503906 0.375 -3.519531 0.375 -3.53125 C 0.375 -3.539062 0.375 -3.546875 0.375 -3.546875 C 0.382812 -3.554688 0.394531 -3.566406 0.40625 -3.578125 C 0.414062 -3.585938 0.425781 -3.59375 0.4375 -3.59375 L 1.21875 -4.171875 C 1.226562 -4.179688 1.257812 -4.1875 1.3125 -4.1875 C 1.363281 -4.1875 1.398438 -4.179688 1.421875 -4.171875 C 1.453125 -4.160156 1.46875 -4.117188 1.46875 -4.046875 L 1.46875 -3.734375 L 1.6875 -3.859375 L 1.828125 -3.921875 C 2.234375 -4.128906 2.613281 -4.234375 2.96875 -4.234375 C 3.320312 -4.234375 3.671875 -4.109375 4.015625 -3.859375 C 4.171875 -3.742188 4.296875 -3.601562 4.390625 -3.4375 C 4.492188 -3.269531 4.546875 -3.101562 4.546875 -2.9375 L 4.546875 -0.578125 C 4.546875 -0.515625 4.5625 -0.445312 4.59375 -0.375 C 4.625 -0.300781 4.675781 -0.25 4.75 -0.21875 C 4.832031 -0.1875 4.875 -0.15625 4.875 -0.125 C 4.875 -0.0390625 4.859375 0 4.828125 0 L 3.53125 0 C 3.5 0 3.484375 -0.0234375 3.484375 -0.078125 C 3.484375 -0.128906 3.492188 -0.160156 3.515625 -0.171875 C 3.546875 -0.191406 3.578125 -0.207031 3.609375 -0.21875 C 3.648438 -0.238281 3.679688 -0.257812 3.703125 -0.28125 C 3.722656 -0.300781 3.742188 -0.328125 3.765625 -0.359375 C 3.785156 -0.390625 3.796875 -0.421875 3.796875 -0.453125 C 3.804688 -0.492188 3.8125 -0.523438 3.8125 -0.546875 C 3.8125 -0.566406 3.8125 -0.601562 3.8125 -0.65625 C 3.8125 -0.71875 3.8125 -0.753906 3.8125 -0.765625 L 3.8125 -2.828125 C 3.8125 -2.992188 3.753906 -3.144531 3.640625 -3.28125 C 3.410156 -3.53125 3.09375 -3.65625 2.6875 -3.65625 C 2.28125 -3.65625 1.875 -3.550781 1.46875 -3.34375 L 1.46875 -0.578125 C 1.46875 -0.515625 1.484375 -0.445312 1.515625 -0.375 C 1.546875 -0.300781 1.601562 -0.25 1.6875 -0.21875 C 1.769531 -0.1875 1.8125 -0.15625 1.8125 -0.125 C 1.8125 -0.0390625 1.789062 0 1.75 0 Z M 0.453125 0 "/></g></g></g><g fill="#000000" fill-opacity="1"><g transform="translate(171.316074, 225.478794)"><g/></g></g><g fill="#000000" fill-opacity="1"><g transform="translate(173.881238, 225.478794)"><g><path d="M 4.0625 -0.5 C 4.71875 -0.5 5.304688 -0.644531 5.828125 -0.9375 C 6.359375 -1.238281 6.789062 -1.644531 7.125 -2.15625 C 7.164062 -2.21875 7.191406 -2.234375 7.203125 -2.203125 C 7.222656 -2.179688 7.25 -2.148438 7.28125 -2.109375 L 7.421875 -1.921875 C 7.460938 -1.847656 7.476562 -1.800781 7.46875 -1.78125 C 7.289062 -1.425781 6.992188 -1.078125 6.578125 -0.734375 C 5.816406 -0.0859375 4.976562 0.234375 4.0625 0.234375 C 3.519531 0.234375 3.015625 0.128906 2.546875 -0.078125 C 2.085938 -0.285156 1.695312 -0.5625 1.375 -0.90625 C 1.0625 -1.25 0.8125 -1.65625 0.625 -2.125 C 0.445312 -2.59375 0.359375 -3.070312 0.359375 -3.5625 C 0.359375 -4.0625 0.453125 -4.539062 0.640625 -5 C 0.835938 -5.457031 1.101562 -5.851562 1.4375 -6.1875 C 1.769531 -6.519531 2.160156 -6.785156 2.609375 -6.984375 C 3.066406 -7.179688 3.53125 -7.28125 4 -7.28125 C 4.550781 -7.28125 5.101562 -7.175781 5.65625 -6.96875 L 5.859375 -6.890625 C 5.890625 -6.878906 5.929688 -6.890625 5.984375 -6.921875 C 6.035156 -6.953125 6.085938 -6.96875 6.140625 -6.96875 C 6.203125 -6.96875 6.25 -6.941406 6.28125 -6.890625 C 6.300781 -6.878906 6.304688 -6.847656 6.296875 -6.796875 C 6.296875 -6.710938 6.332031 -6.519531 6.40625 -6.21875 L 6.515625 -5.734375 C 6.546875 -5.609375 6.5625 -5.523438 6.5625 -5.484375 C 6.5625 -5.472656 6.523438 -5.445312 6.453125 -5.40625 C 6.378906 -5.375 6.332031 -5.367188 6.3125 -5.390625 C 6.070312 -5.804688 5.769531 -6.09375 5.40625 -6.25 C 5.039062 -6.414062 4.582031 -6.5 4.03125 -6.5 C 3.476562 -6.5 2.976562 -6.375 2.53125 -6.125 C 2.09375 -5.875 1.753906 -5.523438 1.515625 -5.078125 C 1.273438 -4.640625 1.15625 -4.140625 1.15625 -3.578125 C 1.15625 -3.210938 1.238281 -2.84375 1.40625 -2.46875 C 1.582031 -2.09375 1.800781 -1.757812 2.0625 -1.46875 C 2.332031 -1.1875 2.644531 -0.953125 3 -0.765625 C 3.351562 -0.585938 3.707031 -0.5 4.0625 -0.5 Z M 4.0625 -0.5 "/></g></g></g><g fill="#000000" fill-opacity="1"><g transform="translate(181.961896, 225.478794)"><g><path d="M 0.40625 -6.46875 L 0.421875 -6.546875 C 0.421875 -6.554688 0.425781 -6.566406 0.4375 -6.578125 C 0.457031 -6.585938 0.46875 -6.59375 0.46875 -6.59375 L 1.265625 -7.1875 C 1.273438 -7.195312 1.289062 -7.203125 1.3125 -7.203125 C 1.4375 -7.203125 1.5 -7.15625 1.5 -7.0625 L 1.5 -0.765625 C 1.5 -0.742188 1.5 -0.710938 1.5 -0.671875 C 1.5 -0.628906 1.5 -0.597656 1.5 -0.578125 C 1.507812 -0.390625 1.566406 -0.273438 1.671875 -0.234375 C 1.785156 -0.191406 1.84375 -0.15625 1.84375 -0.125 C 1.84375 -0.0390625 1.820312 0 1.78125 0 L 0.484375 0 C 0.453125 0 0.4375 -0.0234375 0.4375 -0.078125 C 0.4375 -0.128906 0.445312 -0.160156 0.46875 -0.171875 C 0.488281 -0.191406 0.515625 -0.207031 0.546875 -0.21875 C 0.585938 -0.238281 0.617188 -0.257812 0.640625 -0.28125 C 0.671875 -0.300781 0.691406 -0.320312 0.703125 -0.34375 C 0.722656 -0.375 0.738281 -0.398438 0.75 -0.421875 C 0.757812 -0.441406 0.765625 -0.46875 0.765625 -0.5 C 0.773438 -0.539062 0.78125 -0.566406 0.78125 -0.578125 L 0.78125 -6.109375 C 0.78125 -6.203125 0.753906 -6.269531 0.703125 -6.3125 C 0.660156 -6.351562 0.613281 -6.375 0.5625 -6.375 C 0.507812 -6.375 0.472656 -6.382812 0.453125 -6.40625 C 0.421875 -6.414062 0.40625 -6.4375 0.40625 -6.46875 Z M 0.40625 -6.46875 "/></g></g></g><g fill="#000000" fill-opacity="1"><g transform="translate(184.606167, 225.478794)"><g><path d="M 1.421875 -3.5 C 1.234375 -3.382812 1.09375 -3.226562 1 -3.03125 C 0.914062 -2.832031 0.875 -2.582031 0.875 -2.28125 C 0.875 -1.988281 0.957031 -1.691406 1.125 -1.390625 C 1.289062 -1.085938 1.515625 -0.847656 1.796875 -0.671875 C 2.085938 -0.503906 2.375 -0.421875 2.65625 -0.421875 C 2.945312 -0.421875 3.179688 -0.484375 3.359375 -0.609375 C 3.546875 -0.742188 3.6875 -0.910156 3.78125 -1.109375 C 3.875 -1.316406 3.921875 -1.546875 3.921875 -1.796875 C 3.921875 -2.316406 3.753906 -2.757812 3.421875 -3.125 C 3.097656 -3.5 2.65625 -3.6875 2.09375 -3.6875 C 1.84375 -3.6875 1.617188 -3.625 1.421875 -3.5 Z M 0.890625 -0.53125 C 0.691406 -0.71875 0.53125 -0.941406 0.40625 -1.203125 C 0.289062 -1.472656 0.234375 -1.785156 0.234375 -2.140625 C 0.234375 -2.503906 0.328125 -2.851562 0.515625 -3.1875 C 0.703125 -3.53125 0.96875 -3.796875 1.3125 -3.984375 C 1.65625 -4.179688 2.015625 -4.28125 2.390625 -4.28125 C 3.066406 -4.28125 3.601562 -4.066406 4 -3.640625 C 4.40625 -3.210938 4.609375 -2.691406 4.609375 -2.078125 C 4.617188 -1.472656 4.410156 -0.960938 3.984375 -0.546875 C 3.554688 -0.128906 3.019531 0.078125 2.375 0.078125 C 2.09375 0.078125 1.820312 0.0234375 1.5625 -0.078125 C 1.3125 -0.191406 1.085938 -0.34375 0.890625 -0.53125 Z M 0.890625 -0.53125 "/></g></g></g><g fill="#000000" fill-opacity="1"><g transform="translate(189.773062, 225.478794)"><g><path d="M 0.953125 -4.96875 C 0.960938 -5.03125 1.015625 -5.0625 1.109375 -5.0625 C 1.210938 -5.0625 1.265625 -5.03125 1.265625 -4.96875 L 1.265625 -4.1875 L 2.046875 -4.1875 C 2.191406 -4.1875 2.265625 -4.164062 2.265625 -4.125 L 2.265625 -3.75 C 2.265625 -3.707031 2.191406 -3.6875 2.046875 -3.6875 L 1.265625 -3.6875 L 1.265625 -0.953125 C 1.265625 -0.609375 1.367188 -0.414062 1.578125 -0.375 C 1.734375 -0.34375 1.894531 -0.398438 2.0625 -0.546875 C 2.125 -0.609375 2.164062 -0.625 2.1875 -0.59375 C 2.21875 -0.5625 2.238281 -0.535156 2.25 -0.515625 C 2.269531 -0.503906 2.28125 -0.488281 2.28125 -0.46875 C 2.28125 -0.445312 2.28125 -0.4375 2.28125 -0.4375 C 2.28125 -0.414062 2.265625 -0.390625 2.234375 -0.359375 L 2.140625 -0.28125 C 1.828125 -0.0078125 1.523438 0.109375 1.234375 0.078125 C 0.953125 0.0546875 0.753906 -0.109375 0.640625 -0.421875 C 0.578125 -0.585938 0.546875 -0.796875 0.546875 -1.046875 L 0.546875 -3.6875 L 0.34375 -3.6875 C 0.1875 -3.6875 0.109375 -3.707031 0.109375 -3.75 L 0.109375 -4.125 C 0.109375 -4.164062 0.171875 -4.1875 0.296875 -4.1875 C 0.515625 -4.1875 0.671875 -4.257812 0.765625 -4.40625 C 0.859375 -4.5625 0.921875 -4.75 0.953125 -4.96875 Z M 0.953125 -4.96875 "/></g></g></g><g fill="#000000" fill-opacity="1"><g transform="translate(192.426123, 225.478794)"><g><path d="M 0.40625 -6.46875 L 0.421875 -6.546875 C 0.421875 -6.554688 0.4375 -6.570312 0.46875 -6.59375 L 1.265625 -7.1875 C 1.273438 -7.195312 1.304688 -7.203125 1.359375 -7.203125 C 1.410156 -7.203125 1.445312 -7.191406 1.46875 -7.171875 C 1.488281 -7.160156 1.5 -7.125 1.5 -7.0625 L 1.5 -3.734375 C 1.59375 -3.785156 1.664062 -3.828125 1.71875 -3.859375 L 1.859375 -3.921875 C 2.273438 -4.128906 2.65625 -4.234375 3 -4.234375 C 3.351562 -4.234375 3.703125 -4.109375 4.046875 -3.859375 C 4.203125 -3.742188 4.328125 -3.601562 4.421875 -3.4375 C 4.523438 -3.269531 4.578125 -3.101562 4.578125 -2.9375 L 4.578125 -0.765625 C 4.578125 -0.753906 4.578125 -0.722656 4.578125 -0.671875 C 4.578125 -0.628906 4.578125 -0.597656 4.578125 -0.578125 C 4.597656 -0.390625 4.660156 -0.273438 4.765625 -0.234375 C 4.867188 -0.191406 4.921875 -0.15625 4.921875 -0.125 C 4.921875 -0.0390625 4.898438 0 4.859375 0 L 3.5625 0 C 3.53125 0 3.515625 -0.0234375 3.515625 -0.078125 C 3.515625 -0.128906 3.523438 -0.160156 3.546875 -0.171875 C 3.566406 -0.191406 3.597656 -0.207031 3.640625 -0.21875 C 3.679688 -0.238281 3.710938 -0.257812 3.734375 -0.28125 C 3.753906 -0.300781 3.773438 -0.328125 3.796875 -0.359375 C 3.816406 -0.390625 3.828125 -0.421875 3.828125 -0.453125 C 3.835938 -0.492188 3.84375 -0.523438 3.84375 -0.546875 C 3.84375 -0.566406 3.84375 -0.601562 3.84375 -0.65625 C 3.84375 -0.71875 3.84375 -0.753906 3.84375 -0.765625 L 3.84375 -2.828125 C 3.84375 -3.003906 3.785156 -3.15625 3.671875 -3.28125 C 3.441406 -3.53125 3.125 -3.65625 2.71875 -3.65625 C 2.3125 -3.65625 1.90625 -3.550781 1.5 -3.34375 L 1.5 -0.765625 C 1.5 -0.753906 1.5 -0.722656 1.5 -0.671875 C 1.5 -0.628906 1.5 -0.597656 1.5 -0.578125 C 1.519531 -0.390625 1.582031 -0.273438 1.6875 -0.234375 C 1.789062 -0.191406 1.84375 -0.15625 1.84375 -0.125 C 1.84375 -0.0390625 1.820312 0 1.78125 0 L 0.484375 0 C 0.453125 0 0.4375 -0.0234375 0.4375 -0.078125 C 0.4375 -0.128906 0.445312 -0.160156 0.46875 -0.171875 C 0.488281 -0.191406 0.515625 -0.207031 0.546875 -0.21875 C 0.585938 -0.238281 0.617188 -0.257812 0.640625 -0.28125 C 0.734375 -0.363281 0.78125 -0.460938 0.78125 -0.578125 C 0.78125 -0.691406 0.78125 -0.753906 0.78125 -0.765625 L 0.78125 -6.109375 C 0.78125 -6.203125 0.753906 -6.269531 0.703125 -6.3125 C 0.660156 -6.351562 0.613281 -6.375 0.5625 -6.375 C 0.507812 -6.375 0.472656 -6.382812 0.453125 -6.40625 C 0.421875 -6.414062 0.40625 -6.4375 0.40625 -6.46875 Z M 0.40625 -6.46875 "/></g></g></g><g fill="#000000" fill-opacity="1"><g transform="translate(198.00613, 225.478794)"><g><path d="M 1.46875 -6.375 L 1.46875 -6.015625 C 1.46875 -5.992188 1.457031 -5.972656 1.4375 -5.953125 C 1.425781 -5.941406 1.363281 -5.914062 1.25 -5.875 C 1.144531 -5.832031 1.066406 -5.796875 1.015625 -5.765625 C 0.960938 -5.742188 0.914062 -5.726562 0.875 -5.71875 C 0.84375 -5.707031 0.820312 -5.707031 0.8125 -5.71875 C 0.800781 -5.726562 0.796875 -5.785156 0.796875 -5.890625 L 0.796875 -6.3125 C 0.796875 -6.3125 0.796875 -6.320312 0.796875 -6.34375 C 0.796875 -6.363281 0.796875 -6.375 0.796875 -6.375 C 0.796875 -6.382812 0.796875 -6.394531 0.796875 -6.40625 C 0.796875 -6.414062 0.800781 -6.425781 0.8125 -6.4375 C 0.832031 -6.445312 0.894531 -6.472656 1 -6.515625 C 1.113281 -6.554688 1.195312 -6.59375 1.25 -6.625 C 1.363281 -6.675781 1.425781 -6.695312 1.4375 -6.6875 C 1.457031 -6.675781 1.46875 -6.570312 1.46875 -6.375 Z M 0.46875 0 C 0.425781 0 0.40625 -0.0234375 0.40625 -0.078125 C 0.40625 -0.128906 0.414062 -0.160156 0.4375 -0.171875 C 0.46875 -0.191406 0.5 -0.207031 0.53125 -0.21875 C 0.675781 -0.28125 0.75 -0.421875 0.75 -0.640625 L 0.75 -3.09375 C 0.75 -3.1875 0.722656 -3.253906 0.671875 -3.296875 C 0.628906 -3.335938 0.582031 -3.359375 0.53125 -3.359375 C 0.476562 -3.359375 0.441406 -3.363281 0.421875 -3.375 C 0.398438 -3.394531 0.390625 -3.425781 0.390625 -3.46875 C 0.390625 -3.519531 0.390625 -3.546875 0.390625 -3.546875 C 0.398438 -3.554688 0.410156 -3.566406 0.421875 -3.578125 C 0.429688 -3.585938 0.441406 -3.59375 0.453125 -3.59375 L 1.234375 -4.171875 C 1.253906 -4.191406 1.269531 -4.195312 1.28125 -4.1875 C 1.300781 -4.175781 1.335938 -4.160156 1.390625 -4.140625 C 1.453125 -4.128906 1.484375 -4.097656 1.484375 -4.046875 L 1.484375 -0.625 C 1.484375 -0.414062 1.554688 -0.28125 1.703125 -0.21875 C 1.785156 -0.1875 1.828125 -0.15625 1.828125 -0.125 C 1.828125 -0.0390625 1.804688 0 1.765625 0 Z M 0.46875 0 "/></g></g></g><g fill="#000000" fill-opacity="1"><g transform="translate(200.549321, 225.478794)"><g><path d="M 0.453125 0 C 0.410156 0 0.390625 -0.0234375 0.390625 -0.078125 C 0.390625 -0.128906 0.398438 -0.160156 0.421875 -0.171875 C 0.453125 -0.191406 0.484375 -0.207031 0.515625 -0.21875 C 0.554688 -0.238281 0.585938 -0.257812 0.609375 -0.28125 C 0.703125 -0.363281 0.742188 -0.460938 0.734375 -0.578125 C 0.734375 -0.691406 0.734375 -0.753906 0.734375 -0.765625 L 0.734375 -3.09375 C 0.734375 -3.1875 0.707031 -3.253906 0.65625 -3.296875 C 0.613281 -3.335938 0.566406 -3.359375 0.515625 -3.359375 C 0.460938 -3.359375 0.425781 -3.363281 0.40625 -3.375 C 0.394531 -3.394531 0.382812 -3.410156 0.375 -3.421875 C 0.375 -3.429688 0.375 -3.441406 0.375 -3.453125 C 0.375 -3.460938 0.375 -3.472656 0.375 -3.484375 C 0.375 -3.503906 0.375 -3.519531 0.375 -3.53125 C 0.375 -3.539062 0.375 -3.546875 0.375 -3.546875 C 0.382812 -3.554688 0.394531 -3.566406 0.40625 -3.578125 C 0.414062 -3.585938 0.425781 -3.59375 0.4375 -3.59375 L 1.21875 -4.171875 C 1.226562 -4.179688 1.257812 -4.1875 1.3125 -4.1875 C 1.363281 -4.1875 1.398438 -4.179688 1.421875 -4.171875 C 1.453125 -4.160156 1.46875 -4.117188 1.46875 -4.046875 L 1.46875 -3.734375 L 1.6875 -3.859375 L 1.828125 -3.921875 C 2.234375 -4.128906 2.613281 -4.234375 2.96875 -4.234375 C 3.320312 -4.234375 3.671875 -4.109375 4.015625 -3.859375 C 4.171875 -3.742188 4.296875 -3.601562 4.390625 -3.4375 C 4.492188 -3.269531 4.546875 -3.101562 4.546875 -2.9375 L 4.546875 -0.578125 C 4.546875 -0.515625 4.5625 -0.445312 4.59375 -0.375 C 4.625 -0.300781 4.675781 -0.25 4.75 -0.21875 C 4.832031 -0.1875 4.875 -0.15625 4.875 -0.125 C 4.875 -0.0390625 4.859375 0 4.828125 0 L 3.53125 0 C 3.5 0 3.484375 -0.0234375 3.484375 -0.078125 C 3.484375 -0.128906 3.492188 -0.160156 3.515625 -0.171875 C 3.546875 -0.191406 3.578125 -0.207031 3.609375 -0.21875 C 3.648438 -0.238281 3.679688 -0.257812 3.703125 -0.28125 C 3.722656 -0.300781 3.742188 -0.328125 3.765625 -0.359375 C 3.785156 -0.390625 3.796875 -0.421875 3.796875 -0.453125 C 3.804688 -0.492188 3.8125 -0.523438 3.8125 -0.546875 C 3.8125 -0.566406 3.8125 -0.601562 3.8125 -0.65625 C 3.8125 -0.71875 3.8125 -0.753906 3.8125 -0.765625 L 3.8125 -2.828125 C 3.8125 -2.992188 3.753906 -3.144531 3.640625 -3.28125 C 3.410156 -3.53125 3.09375 -3.65625 2.6875 -3.65625 C 2.28125 -3.65625 1.875 -3.550781 1.46875 -3.34375 L 1.46875 -0.578125 C 1.46875 -0.515625 1.484375 -0.445312 1.515625 -0.375 C 1.546875 -0.300781 1.601562 -0.25 1.6875 -0.21875 C 1.769531 -0.1875 1.8125 -0.15625 1.8125 -0.125 C 1.8125 -0.0390625 1.789062 0 1.75 0 Z M 0.453125 0 "/></g></g></g><g fill="#000000" fill-opacity="1"><g transform="translate(206.028248, 225.478794)"><g><path d="M 1.28125 -1.171875 C 1.1875 -1.140625 1.203125 -1.078125 1.328125 -0.984375 C 1.460938 -0.898438 1.664062 -0.828125 1.9375 -0.765625 C 2.21875 -0.703125 2.453125 -0.65625 2.640625 -0.625 C 2.835938 -0.59375 3.039062 -0.546875 3.25 -0.484375 C 3.46875 -0.421875 3.648438 -0.347656 3.796875 -0.265625 C 3.953125 -0.191406 4.082031 -0.0859375 4.1875 0.046875 C 4.289062 0.191406 4.34375 0.359375 4.34375 0.546875 C 4.34375 0.734375 4.296875 0.90625 4.203125 1.0625 C 3.921875 1.5625 3.242188 1.8125 2.171875 1.8125 C 1.679688 1.8125 1.238281 1.691406 0.84375 1.453125 C 0.457031 1.222656 0.222656 0.894531 0.140625 0.46875 L 0.140625 0.40625 C 0.140625 0.382812 0.140625 0.367188 0.140625 0.359375 L 0.890625 -0.296875 C 0.921875 -0.296875 0.953125 -0.273438 0.984375 -0.234375 C 1.023438 -0.191406 1.046875 -0.160156 1.046875 -0.140625 C 1.046875 -0.117188 1.019531 -0.0820312 0.96875 -0.03125 C 0.925781 0.0078125 0.90625 0.132812 0.90625 0.34375 C 0.90625 0.5625 0.992188 0.753906 1.171875 0.921875 C 1.347656 1.097656 1.554688 1.21875 1.796875 1.28125 C 2.316406 1.363281 2.765625 1.335938 3.140625 1.203125 C 3.265625 1.148438 3.367188 1.070312 3.453125 0.96875 C 3.535156 0.863281 3.578125 0.753906 3.578125 0.640625 C 3.578125 0.523438 3.519531 0.429688 3.40625 0.359375 C 3.238281 0.265625 2.832031 0.144531 2.1875 0 C 1.539062 -0.15625 1.0625 -0.300781 0.75 -0.4375 C 0.675781 -0.46875 0.640625 -0.488281 0.640625 -0.5 C 0.640625 -0.519531 0.679688 -0.613281 0.765625 -0.78125 C 0.859375 -0.945312 0.960938 -1.113281 1.078125 -1.28125 C 0.878906 -1.425781 0.71875 -1.609375 0.59375 -1.828125 C 0.46875 -2.054688 0.40625 -2.296875 0.40625 -2.546875 C 0.40625 -3.046875 0.5625 -3.445312 0.875 -3.75 C 1.1875 -4.0625 1.570312 -4.21875 2.03125 -4.21875 C 2.488281 -4.21875 2.867188 -4.070312 3.171875 -3.78125 L 3.1875 -3.796875 C 3.300781 -4.035156 3.359375 -4.160156 3.359375 -4.171875 C 3.367188 -4.179688 3.378906 -4.1875 3.390625 -4.1875 L 4.125 -4.1875 C 4.144531 -4.1875 4.164062 -4.164062 4.1875 -4.125 C 4.207031 -4.082031 4.210938 -4.054688 4.203125 -4.046875 C 4.128906 -4.015625 4.046875 -3.976562 3.953125 -3.9375 C 3.753906 -3.851562 3.585938 -3.675781 3.453125 -3.40625 C 3.585938 -3.15625 3.65625 -2.890625 3.65625 -2.609375 C 3.65625 -2.148438 3.5 -1.765625 3.1875 -1.453125 C 2.875 -1.140625 2.472656 -0.984375 1.984375 -0.984375 C 1.742188 -0.984375 1.507812 -1.046875 1.28125 -1.171875 Z M 1.78125 -3.6875 C 1.21875 -3.6875 0.9375 -3.378906 0.9375 -2.765625 C 0.9375 -2.410156 1.070312 -2.109375 1.34375 -1.859375 C 1.613281 -1.617188 1.90625 -1.5 2.21875 -1.5 C 2.539062 -1.5 2.765625 -1.566406 2.890625 -1.703125 C 3.023438 -1.847656 3.09375 -2.085938 3.09375 -2.421875 C 3.09375 -2.753906 2.96875 -3.046875 2.71875 -3.296875 C 2.46875 -3.554688 2.15625 -3.6875 1.78125 -3.6875 Z M 1.78125 -3.6875 "/></g></g></g><g fill="#000000" fill-opacity="1"><g transform="translate(210.777635, 225.478794)"><g/></g></g><g fill="#000000" fill-opacity="1"><g transform="translate(213.3428, 225.478794)"><g><path d="M 1.515625 -0.046875 C 1.429688 -0.0664062 1.335938 -0.09375 1.234375 -0.125 C 1.128906 -0.164062 1.0625 -0.1875 1.03125 -0.1875 L 0.96875 -0.1875 C 0.863281 -0.1875 0.785156 -0.128906 0.734375 -0.015625 C 0.734375 -0.00390625 0.734375 0 0.734375 0 L 0.59375 0 C 0.582031 0 0.570312 -0.00390625 0.5625 -0.015625 L 0.1875 -1.3125 C 0.175781 -1.375 0.222656 -1.40625 0.328125 -1.40625 C 0.367188 -1.40625 0.394531 -1.394531 0.40625 -1.375 C 0.414062 -1.363281 0.425781 -1.351562 0.4375 -1.34375 C 0.445312 -1.34375 0.460938 -1.328125 0.484375 -1.296875 C 0.867188 -0.816406 1.429688 -0.578125 2.171875 -0.578125 C 2.566406 -0.578125 2.894531 -0.679688 3.15625 -0.890625 C 3.414062 -1.097656 3.546875 -1.398438 3.546875 -1.796875 C 3.546875 -2.066406 3.5 -2.269531 3.40625 -2.40625 C 3.320312 -2.539062 3.253906 -2.640625 3.203125 -2.703125 C 3.085938 -2.847656 2.804688 -3.046875 2.359375 -3.296875 C 1.910156 -3.546875 1.550781 -3.769531 1.28125 -3.96875 C 0.582031 -4.476562 0.234375 -5 0.234375 -5.53125 C 0.234375 -6.070312 0.398438 -6.488281 0.734375 -6.78125 C 1.066406 -7.070312 1.507812 -7.21875 2.0625 -7.21875 C 2.375 -7.21875 2.703125 -7.132812 3.046875 -6.96875 C 3.210938 -6.882812 3.332031 -6.828125 3.40625 -6.796875 C 3.476562 -6.773438 3.53125 -6.789062 3.5625 -6.84375 C 3.59375 -6.90625 3.613281 -6.9375 3.625 -6.9375 C 3.75 -6.957031 3.8125 -6.9375 3.8125 -6.875 L 3.953125 -5.46875 C 3.953125 -5.445312 3.882812 -5.4375 3.75 -5.4375 C 3.726562 -5.4375 3.707031 -5.460938 3.6875 -5.515625 C 3.601562 -5.804688 3.394531 -6.050781 3.0625 -6.25 C 2.726562 -6.445312 2.394531 -6.546875 2.0625 -6.546875 C 1.34375 -6.546875 0.984375 -6.253906 0.984375 -5.671875 C 0.984375 -5.242188 1.367188 -4.820312 2.140625 -4.40625 L 2.984375 -3.953125 C 3.492188 -3.671875 3.847656 -3.363281 4.046875 -3.03125 C 4.253906 -2.707031 4.359375 -2.359375 4.359375 -1.984375 L 4.359375 -1.9375 C 4.285156 -1.425781 4.203125 -1.082031 4.109375 -0.90625 C 3.929688 -0.601562 3.6875 -0.363281 3.375 -0.1875 C 3.0625 -0.0078125 2.707031 0.078125 2.3125 0.078125 C 2.09375 0.078125 1.910156 0.0546875 1.765625 0.015625 Z M 1.515625 -0.046875 "/></g></g></g><g fill="#000000" fill-opacity="1"><g transform="translate(218.197663, 225.478794)"><g><path d="M 0.953125 -4.96875 C 0.960938 -5.03125 1.015625 -5.0625 1.109375 -5.0625 C 1.210938 -5.0625 1.265625 -5.03125 1.265625 -4.96875 L 1.265625 -4.1875 L 2.046875 -4.1875 C 2.191406 -4.1875 2.265625 -4.164062 2.265625 -4.125 L 2.265625 -3.75 C 2.265625 -3.707031 2.191406 -3.6875 2.046875 -3.6875 L 1.265625 -3.6875 L 1.265625 -0.953125 C 1.265625 -0.609375 1.367188 -0.414062 1.578125 -0.375 C 1.734375 -0.34375 1.894531 -0.398438 2.0625 -0.546875 C 2.125 -0.609375 2.164062 -0.625 2.1875 -0.59375 C 2.21875 -0.5625 2.238281 -0.535156 2.25 -0.515625 C 2.269531 -0.503906 2.28125 -0.488281 2.28125 -0.46875 C 2.28125 -0.445312 2.28125 -0.4375 2.28125 -0.4375 C 2.28125 -0.414062 2.265625 -0.390625 2.234375 -0.359375 L 2.140625 -0.28125 C 1.828125 -0.0078125 1.523438 0.109375 1.234375 0.078125 C 0.953125 0.0546875 0.753906 -0.109375 0.640625 -0.421875 C 0.578125 -0.585938 0.546875 -0.796875 0.546875 -1.046875 L 0.546875 -3.6875 L 0.34375 -3.6875 C 0.1875 -3.6875 0.109375 -3.707031 0.109375 -3.75 L 0.109375 -4.125 C 0.109375 -4.164062 0.171875 -4.1875 0.296875 -4.1875 C 0.515625 -4.1875 0.671875 -4.257812 0.765625 -4.40625 C 0.859375 -4.5625 0.921875 -4.75 0.953125 -4.96875 Z M 0.953125 -4.96875 "/></g></g></g><g fill="#000000" fill-opacity="1"><g transform="translate(220.850724, 225.478794)"><g><path d="M 1.421875 -3.5 C 1.234375 -3.382812 1.09375 -3.226562 1 -3.03125 C 0.914062 -2.832031 0.875 -2.582031 0.875 -2.28125 C 0.875 -1.988281 0.957031 -1.691406 1.125 -1.390625 C 1.289062 -1.085938 1.515625 -0.847656 1.796875 -0.671875 C 2.085938 -0.503906 2.375 -0.421875 2.65625 -0.421875 C 2.945312 -0.421875 3.179688 -0.484375 3.359375 -0.609375 C 3.546875 -0.742188 3.6875 -0.910156 3.78125 -1.109375 C 3.875 -1.316406 3.921875 -1.546875 3.921875 -1.796875 C 3.921875 -2.316406 3.753906 -2.757812 3.421875 -3.125 C 3.097656 -3.5 2.65625 -3.6875 2.09375 -3.6875 C 1.84375 -3.6875 1.617188 -3.625 1.421875 -3.5 Z M 0.890625 -0.53125 C 0.691406 -0.71875 0.53125 -0.941406 0.40625 -1.203125 C 0.289062 -1.472656 0.234375 -1.785156 0.234375 -2.140625 C 0.234375 -2.503906 0.328125 -2.851562 0.515625 -3.1875 C 0.703125 -3.53125 0.96875 -3.796875 1.3125 -3.984375 C 1.65625 -4.179688 2.015625 -4.28125 2.390625 -4.28125 C 3.066406 -4.28125 3.601562 -4.066406 4 -3.640625 C 4.40625 -3.210938 4.609375 -2.691406 4.609375 -2.078125 C 4.617188 -1.472656 4.410156 -0.960938 3.984375 -0.546875 C 3.554688 -0.128906 3.019531 0.078125 2.375 0.078125 C 2.09375 0.078125 1.820312 0.0234375 1.5625 -0.078125 C 1.3125 -0.191406 1.085938 -0.34375 0.890625 -0.53125 Z M 0.890625 -0.53125 "/></g></g></g><g fill="#000000" fill-opacity="1"><g transform="translate(226.017619, 225.478794)"><g><path d="M 0.375 -3.453125 L 0.390625 -3.53125 C 0.390625 -3.550781 0.394531 -3.566406 0.40625 -3.578125 C 0.425781 -3.585938 0.4375 -3.59375 0.4375 -3.59375 L 1.234375 -4.171875 C 1.242188 -4.179688 1.273438 -4.1875 1.328125 -4.1875 C 1.378906 -4.1875 1.414062 -4.179688 1.4375 -4.171875 C 1.457031 -4.160156 1.46875 -4.117188 1.46875 -4.046875 L 1.46875 -3.296875 C 1.488281 -3.328125 1.515625 -3.359375 1.546875 -3.390625 C 1.753906 -3.648438 1.972656 -3.851562 2.203125 -4 C 2.429688 -4.144531 2.691406 -4.21875 2.984375 -4.21875 C 3.078125 -4.21875 3.128906 -4.207031 3.140625 -4.1875 C 3.191406 -4.050781 3.234375 -3.921875 3.265625 -3.796875 L 3.390625 -3.28125 C 3.398438 -3.25 3.378906 -3.21875 3.328125 -3.1875 C 3.273438 -3.15625 3.234375 -3.140625 3.203125 -3.140625 C 3.171875 -3.148438 3.140625 -3.179688 3.109375 -3.234375 L 3.0625 -3.3125 C 2.90625 -3.457031 2.722656 -3.515625 2.515625 -3.484375 C 2.304688 -3.453125 2.109375 -3.375 1.921875 -3.25 C 1.734375 -3.125 1.59375 -2.992188 1.5 -2.859375 C 1.5 -2.847656 1.492188 -2.832031 1.484375 -2.8125 C 1.472656 -2.800781 1.46875 -2.789062 1.46875 -2.78125 L 1.46875 -0.765625 C 1.46875 -0.753906 1.46875 -0.722656 1.46875 -0.671875 C 1.46875 -0.628906 1.46875 -0.597656 1.46875 -0.578125 C 1.488281 -0.390625 1.550781 -0.273438 1.65625 -0.234375 C 1.757812 -0.191406 1.8125 -0.15625 1.8125 -0.125 C 1.8125 -0.0390625 1.796875 0 1.765625 0 L 0.453125 0 C 0.421875 0 0.40625 -0.0234375 0.40625 -0.078125 C 0.40625 -0.128906 0.414062 -0.160156 0.4375 -0.171875 C 0.457031 -0.191406 0.484375 -0.207031 0.515625 -0.21875 C 0.554688 -0.238281 0.585938 -0.257812 0.609375 -0.28125 C 0.648438 -0.320312 0.679688 -0.367188 0.703125 -0.421875 C 0.734375 -0.484375 0.75 -0.550781 0.75 -0.625 C 0.75 -0.707031 0.75 -0.753906 0.75 -0.765625 L 0.75 -3.09375 C 0.75 -3.1875 0.722656 -3.253906 0.671875 -3.296875 C 0.628906 -3.335938 0.582031 -3.359375 0.53125 -3.359375 C 0.476562 -3.359375 0.441406 -3.367188 0.421875 -3.390625 C 0.390625 -3.410156 0.375 -3.429688 0.375 -3.453125 Z M 0.375 -3.453125 "/></g></g></g><g fill="#000000" fill-opacity="1"><g transform="translate(229.804542, 225.478794)"><g><path d="M 3.390625 -3.046875 C 3.210938 -3.546875 2.835938 -3.796875 2.265625 -3.796875 C 2.003906 -3.796875 1.765625 -3.722656 1.546875 -3.578125 C 1.328125 -3.441406 1.160156 -3.265625 1.046875 -3.046875 C 0.929688 -2.835938 0.875 -2.632812 0.875 -2.4375 C 0.875 -2.25 0.878906 -2.160156 0.890625 -2.171875 L 3.375 -3.03125 L 3.375 -3.0625 Z M 0.984375 -1.703125 C 1.109375 -1.359375 1.320312 -1.085938 1.625 -0.890625 C 1.925781 -0.691406 2.265625 -0.59375 2.640625 -0.59375 C 3.128906 -0.59375 3.570312 -0.820312 3.96875 -1.28125 C 4.03125 -1.332031 4.117188 -1.300781 4.234375 -1.1875 C 4.242188 -1.175781 4.242188 -1.160156 4.234375 -1.140625 C 3.898438 -0.679688 3.640625 -0.382812 3.453125 -0.25 C 3.140625 -0.03125 2.78125 0.078125 2.375 0.078125 C 2.09375 0.078125 1.820312 0.0195312 1.5625 -0.09375 C 1.03125 -0.320312 0.648438 -0.695312 0.421875 -1.21875 C 0.296875 -1.476562 0.234375 -1.785156 0.234375 -2.140625 C 0.234375 -2.503906 0.328125 -2.851562 0.515625 -3.1875 C 0.703125 -3.53125 0.96875 -3.796875 1.3125 -3.984375 C 1.65625 -4.179688 2.054688 -4.28125 2.515625 -4.28125 C 3.054688 -4.28125 3.546875 -4.023438 3.984375 -3.515625 C 4.191406 -3.253906 4.296875 -3.050781 4.296875 -2.90625 Z M 0.984375 -1.703125 "/></g></g></g></svg>