<svg xmlns="http://www.w3.org/2000/svg" xmlns:xlink="http://www.w3.org/1999/xlink" width="500" zoomAndPan="magnify" viewBox="0 0 375 374.999991" height="500" preserveAspectRatio="xMidYMid meet" version="1.0"><defs><g/><clipPath id="d16259b579"><path d="M 119 57.203125 L 262 57.203125 L 262 176 L 119 176 Z M 119 57.203125 " clip-rule="nonzero"/></clipPath><clipPath id="7c2e220aa0"><path d="M 66.824219 185.230469 L 313.144531 185.230469 L 313.144531 262.671875 L 66.824219 262.671875 Z M 66.824219 185.230469 " clip-rule="nonzero"/></clipPath></defs><path fill="#231f20" d="M 339.625 193.558594 C 335.339844 182.191406 327.253906 175.417969 315.097656 173.695312 C 305.328125 172.316406 295.570312 170.921875 285.8125 169.539062 C 281.9375 168.984375 278.109375 168.296875 274.324219 167.457031 L 274.324219 177.707031 C 281.089844 178.703125 287.886719 179.542969 294.65625 180.554688 C 301.378906 181.554688 308.09375 182.625 314.800781 183.71875 C 319.289062 184.453125 321.394531 187.925781 323.882812 191.667969 L 51.445312 191.667969 C 53.941406 187.859375 56.085938 184.417969 60.589844 183.691406 C 66.121094 182.789062 71.671875 181.921875 77.210938 181.058594 C 86.863281 179.550781 96.582031 178.304688 106.226562 176.722656 L 106.226562 166.21875 C 99.859375 167.890625 93.375 169.039062 86.855469 169.976562 C 78.019531 171.25 69.175781 172.449219 60.328125 173.648438 C 50.667969 174.953125 43.316406 179.699219 38.421875 188.1875 C 36.113281 192.207031 34.292969 196.339844 35.296875 201.132812 C 35.972656 204.324219 37.800781 206.484375 41.066406 207.332031 C 46.007812 208.628906 50.710938 205.15625 50.449219 200.335938 C 50.390625 199.488281 50.136719 198.664062 49.925781 197.554688 C 53.507812 197.554688 56.925781 197.53125 60.328125 197.585938 C 60.640625 197.597656 61.195312 198.035156 61.210938 198.304688 C 61.339844 199.96875 61.511719 201.664062 61.339844 203.304688 C 61.203125 204.648438 60.199219 205.503906 58.777344 204.878906 C 57.496094 204.324219 57.660156 203.386719 58.394531 202.285156 C 59.234375 201.011719 58.664062 200.171875 57.105469 200.105469 C 55.382812 200.035156 54.09375 201.5 54.039062 203.621094 C 53.972656 205.988281 55.464844 208.03125 57.847656 208.824219 C 60.410156 209.671875 63.332031 208.898438 64.515625 206.476562 C 65.527344 204.414062 66.121094 202.03125 66.375 199.730469 C 66.578125 197.929688 67.117188 197.496094 68.839844 197.496094 C 92.566406 197.515625 116.300781 197.417969 140.03125 197.410156 C 160.707031 197.410156 181.371094 197.515625 202.039062 197.523438 C 236.765625 197.546875 271.492188 197.546875 306.210938 197.488281 C 308.195312 197.488281 308.675781 198.078125 308.839844 199.976562 C 309.035156 202.105469 309.523438 204.332031 310.488281 206.214844 C 312.078125 209.347656 316.035156 210.046875 318.890625 208.074219 C 321.347656 206.371094 321.992188 202.242188 319.871094 200.792969 C 319.496094 200.539062 318.980469 200.472656 318.433594 200.472656 C 317.339844 200.464844 316.53125 201.640625 317.039062 202.617188 C 317.578125 203.628906 317.4375 204.527344 316.515625 204.78125 C 315.960938 204.933594 315.25 204.722656 314.746094 204.503906 C 314.222656 204.273438 314.222656 203.898438 314.199219 203.367188 C 314.148438 202.691406 314.019531 202.023438 313.996094 201.347656 C 313.96875 200.34375 314.011719 199.339844 314.117188 198.335938 C 314.199219 197.605469 315.714844 197.710938 316.261719 197.660156 C 317.113281 197.597656 318.507812 197.53125 319.363281 197.53125 L 325.671875 197.53125 C 325.523438 198.304688 325.433594 198.714844 325.351562 199.121094 C 324.457031 203.941406 328.242188 208.539062 332.679688 207.917969 C 335.40625 207.542969 337.632812 206.246094 339.09375 203.859375 C 341.117188 200.53125 340.914062 196.984375 339.625 193.558594 " fill-opacity="1" fill-rule="nonzero"/><path fill="#231f20" d="M 269.96875 166.421875 C 268.433594 166.03125 266.898438 165.605469 265.375 165.167969 L 265.375 176.28125 C 266.898438 176.550781 268.433594 176.800781 269.96875 177.046875 L 269.96875 166.421875 " fill-opacity="1" fill-rule="nonzero"/><path fill="#231f20" d="M 115.167969 163.480469 C 114.546875 163.691406 113.9375 163.902344 113.324219 164.113281 C 112.410156 164.417969 111.496094 164.710938 110.574219 164.988281 L 110.574219 175.980469 C 112.117188 175.710938 113.640625 175.433594 115.167969 175.140625 L 115.167969 163.480469 " fill-opacity="1" fill-rule="nonzero"/><g clip-path="url(#d16259b579)"><path fill="#231f20" d="M 170.796875 131.921875 C 170.796875 130.265625 172.136719 128.929688 173.785156 128.929688 L 195.953125 128.929688 C 197.609375 128.929688 198.949219 130.265625 198.949219 131.921875 L 198.949219 138.746094 C 198.949219 140.402344 197.609375 141.738281 195.953125 141.738281 L 173.785156 141.738281 C 172.136719 141.738281 170.796875 140.402344 170.796875 138.746094 Z M 165.945312 150 C 168.695312 147.960938 171.84375 147.308594 175.300781 147.375 C 182.410156 147.496094 189.582031 147.878906 196.621094 147.195312 C 204.046875 146.46875 209.90625 149.085938 215.023438 153.75 C 228.167969 165.746094 243.964844 172.082031 261.023438 175.472656 L 261.023438 163.789062 C 255.964844 162.109375 251.003906 160.085938 246.167969 157.699219 C 239.441406 154.371094 232.761719 150.996094 227.996094 144.878906 C 223.988281 139.726562 219.199219 135.429688 213.832031 131.667969 C 210.910156 129.613281 207.800781 127.796875 204.441406 126.554688 C 202.742188 125.929688 200.988281 125.449219 199.191406 125.152344 C 197.910156 124.949219 195.878906 125.210938 195.351562 123.679688 C 194.484375 121.207031 194.207031 118.640625 195.316406 116.183594 C 197.488281 111.355469 199.601562 106.488281 202.046875 101.800781 C 205.363281 95.449219 209.132812 89.324219 211.136719 82.359375 C 214.109375 72.011719 209.320312 62.71875 199.183594 59.210938 C 194.363281 57.539062 189.476562 57.117188 184.449219 58.257812 C 177.621094 59.796875 172.5625 63.605469 170.0625 70.105469 C 168.449219 74.320312 167.746094 78.871094 166.5 83.234375 C 166.171875 84.351562 165.550781 85.558594 164.703125 86.324219 C 163.039062 87.808594 162.484375 89.59375 163.554688 91.410156 C 164.582031 93.179688 166.335938 93.613281 168.433594 92.617188 C 171.222656 91.289062 172.8125 88.917969 173.6875 86.121094 C 174.863281 82.375 175.636719 78.503906 176.84375 74.769531 C 178.5 69.65625 182.523438 66.6875 187.917969 66.484375 C 189.824219 66.417969 191.808594 66.558594 193.675781 66.941406 C 200.800781 68.417969 203.65625 73.546875 201.167969 80.332031 C 200.464844 82.261719 199.648438 84.179688 198.628906 85.957031 C 195.074219 92.113281 191.261719 98.113281 187.820312 104.335938 C 185.671875 108.203125 183.648438 112.132812 181.625 116.0625 C 180.640625 117.996094 179.644531 119.917969 178.640625 121.835938 C 177.839844 123.34375 177.398438 124.371094 175.660156 124.886719 C 172.886719 125.707031 170.203125 126.019531 167.609375 127.363281 C 164.941406 128.742188 162.542969 130.535156 160.140625 132.304688 C 156.863281 134.726562 153.785156 137.433594 151.042969 140.449219 C 147.984375 143.8125 145.113281 147.480469 141.5625 150.234375 C 134.898438 155.414062 127.359375 158.984375 119.523438 161.914062 L 119.523438 174.257812 C 132.328125 171.496094 144.386719 166.464844 154.992188 158.457031 C 158.671875 155.675781 162.230469 152.738281 165.945312 150 " fill-opacity="1" fill-rule="nonzero"/></g><g clip-path="url(#7c2e220aa0)"><path fill="#fffafa" d="M 66.824219 185.230469 L 313.0625 185.230469 L 313.0625 262.671875 L 66.824219 262.671875 Z M 66.824219 185.230469 " fill-opacity="1" fill-rule="nonzero"/></g><g fill="#000000" fill-opacity="1"><g transform="translate(65.502798, 243.320517)"><g><path d="M 30.4375 -38.78125 L 30.4375 0 L 23.5625 0 L 23.5625 -17.453125 L 10.40625 -17.453125 L 10.40625 0 L 3.53125 0 L 3.53125 -38.78125 L 10.40625 -38.78125 L 10.40625 -21.796875 L 23.5625 -21.796875 L 23.5625 -38.78125 Z M 30.4375 -38.78125 "/></g></g></g><g fill="#000000" fill-opacity="1"><g transform="translate(97.980747, 243.320517)"><g><path d="M 17.09375 -39.953125 C 27.125 -39.953125 32.140625 -33.273438 32.140625 -19.921875 C 32.140625 -5.773438 27.125 1.296875 17.09375 1.296875 C 11.613281 1.296875 7.726562 -0.523438 5.4375 -4.171875 C 3.144531 -7.816406 2 -12.832031 2 -19.21875 C 2 -25.476562 3.179688 -30.5 5.546875 -34.28125 C 7.921875 -38.0625 11.769531 -39.953125 17.09375 -39.953125 Z M 17.09375 -2.8125 C 20.226562 -2.8125 22.285156 -4.367188 23.265625 -7.484375 C 24.242188 -10.597656 24.734375 -14.601562 24.734375 -19.5 C 24.734375 -24.164062 24.222656 -28.054688 23.203125 -31.171875 C 22.179688 -34.285156 20.144531 -35.84375 17.09375 -35.84375 C 14 -35.84375 11.941406 -34.285156 10.921875 -31.171875 C 9.910156 -28.054688 9.40625 -24.164062 9.40625 -19.5 C 9.40625 -14.601562 9.894531 -10.597656 10.875 -7.484375 C 11.851562 -4.367188 13.925781 -2.8125 17.09375 -2.8125 Z M 17.09375 -2.8125 "/></g></g></g><g fill="#000000" fill-opacity="1"><g transform="translate(130.634894, 243.320517)"><g><path d="M 3.53125 -38.78125 L 10.40625 -38.78125 L 10.40625 -4.34375 L 23.203125 -4.34375 L 22.796875 0 L 3.53125 0 Z M 3.53125 -38.78125 "/></g></g></g><g fill="#000000" fill-opacity="1"><g transform="translate(152.658629, 243.320517)"><g><path d="M 19.5 -38.78125 L 29.546875 0 L 22.625 0 L 20.265625 -9.875 L 8.75 -9.875 L 6.46875 0 L 0 0 L 10.75 -38.78125 Z M 9.8125 -14.21875 L 19.265625 -14.21875 L 14.515625 -34.375 Z M 9.8125 -14.21875 "/></g></g></g><g fill="#000000" fill-opacity="1"><g transform="translate(180.731717, 243.320517)"><g><path d="M 47 -38.78125 L 37.484375 0 L 28.671875 0 L 22.96875 -27.84375 L 17.265625 0 L 8.453125 0 L -0.296875 -38.78125 L 6.640625 -38.78125 L 13.515625 -4.40625 L 20.328125 -38.78125 L 26.84375 -38.78125 L 33.71875 -4.40625 L 40.53125 -38.78125 Z M 47 -38.78125 "/></g></g></g><g fill="#000000" fill-opacity="1"><g transform="translate(225.954411, 243.320517)"><g><path d="M 23.203125 -38.78125 L 23.203125 -34.421875 L 10.40625 -34.421875 L 10.40625 -22.09375 L 21.4375 -22.09375 L 21.4375 -17.75 L 10.40625 -17.75 L 10.40625 -4.34375 L 24.03125 -4.34375 L 23.625 0 L 3.53125 0 L 3.53125 -38.78125 Z M 23.203125 -38.78125 "/></g></g></g><g fill="#000000" fill-opacity="1"><g transform="translate(250.209938, 243.320517)"><g><path d="M 19.5 -38.78125 L 29.546875 0 L 22.625 0 L 20.265625 -9.875 L 8.75 -9.875 L 6.46875 0 L 0 0 L 10.75 -38.78125 Z M 9.8125 -14.21875 L 19.265625 -14.21875 L 14.515625 -34.375 Z M 9.8125 -14.21875 "/></g></g></g><g fill="#000000" fill-opacity="1"><g transform="translate(278.283026, 243.320517)"><g><path d="M 28.5 -28.140625 C 28.5 -25.472656 27.820312 -23.195312 26.46875 -21.3125 C 25.113281 -19.4375 23.265625 -18.164062 20.921875 -17.5 L 31.140625 0 L 23.625 0 L 13.15625 -18.5625 C 12.925781 -19 12.8125 -19.390625 12.8125 -19.734375 C 15.75 -19.734375 17.921875 -20.390625 19.328125 -21.703125 C 20.734375 -23.015625 21.4375 -25.082031 21.4375 -27.90625 C 21.4375 -30.257812 20.835938 -32.007812 19.640625 -33.15625 C 18.453125 -34.3125 16.625 -34.890625 14.15625 -34.890625 C 12.945312 -34.890625 11.695312 -34.796875 10.40625 -34.609375 L 10.40625 0 L 3.53125 0 L 3.53125 -38.546875 C 8.144531 -38.859375 11.820312 -39.015625 14.5625 -39.015625 C 23.851562 -39.015625 28.5 -35.390625 28.5 -28.140625 Z M 28.5 -28.140625 "/></g></g></g><g fill="#000000" fill-opacity="1"><g transform="translate(102.883446, 268.549935)"><g><path d="M 2.84375 -11.34375 C 2.53125 -11.445312 2.285156 -11.5 2.109375 -11.5 C 1.847656 -11.5 1.640625 -11.484375 1.484375 -11.453125 C 1.328125 -11.429688 1.238281 -11.429688 1.21875 -11.453125 C 1.207031 -11.472656 1.203125 -11.507812 1.203125 -11.5625 C 1.203125 -11.613281 1.21875 -11.664062 1.25 -11.71875 C 1.289062 -11.769531 1.332031 -11.800781 1.375 -11.8125 C 2.101562 -11.976562 3.101562 -12.0625 4.375 -12.0625 L 8.0625 -6.046875 L 8.140625 -6.046875 L 11.671875 -12.0625 C 12.929688 -12.0625 13.929688 -11.976562 14.671875 -11.8125 C 14.785156 -11.789062 14.84375 -11.703125 14.84375 -11.546875 C 14.84375 -11.453125 14.765625 -11.414062 14.609375 -11.4375 C 14.453125 -11.46875 14.242188 -11.484375 13.984375 -11.484375 C 13.722656 -11.484375 13.445312 -11.429688 13.15625 -11.328125 L 14.546875 -1.28125 C 14.617188 -0.757812 14.78125 -0.441406 15.03125 -0.328125 C 15.09375 -0.296875 15.125 -0.234375 15.125 -0.140625 C 15.125 -0.046875 15.09375 0 15.03125 0 L 12.578125 0 C 12.515625 0 12.484375 -0.0390625 12.484375 -0.125 C 12.484375 -0.207031 12.492188 -0.257812 12.515625 -0.28125 C 12.546875 -0.300781 12.578125 -0.320312 12.609375 -0.34375 C 12.742188 -0.394531 12.859375 -0.535156 12.953125 -0.765625 C 13.046875 -0.992188 13.09375 -1.148438 13.09375 -1.234375 C 13.09375 -1.328125 13.085938 -1.390625 13.078125 -1.421875 L 11.90625 -10.140625 L 11.859375 -10.140625 L 8.234375 -3.796875 C 8.222656 -3.773438 8.132812 -3.765625 7.96875 -3.765625 C 7.800781 -3.773438 7.710938 -3.785156 7.703125 -3.796875 L 3.921875 -10.140625 L 3.859375 -10.140625 L 2.78125 -1.421875 C 2.75 -1.265625 2.773438 -1.078125 2.859375 -0.859375 C 2.953125 -0.648438 3.03125 -0.515625 3.09375 -0.453125 C 3.15625 -0.398438 3.21875 -0.359375 3.28125 -0.328125 C 3.34375 -0.296875 3.375 -0.234375 3.375 -0.140625 C 3.375 -0.046875 3.34375 0 3.28125 0 L 1.03125 0 C 0.96875 0 0.9375 -0.0390625 0.9375 -0.125 C 0.9375 -0.207031 0.945312 -0.257812 0.96875 -0.28125 C 0.988281 -0.300781 1.019531 -0.320312 1.0625 -0.34375 C 1.289062 -0.4375 1.441406 -0.75 1.515625 -1.28125 Z M 2.84375 -11.34375 "/></g></g></g><g fill="#000000" fill-opacity="1"><g transform="translate(119.534566, 268.549935)"><g><path d="M 2.390625 -5.859375 C 2.078125 -5.648438 1.84375 -5.382812 1.6875 -5.0625 C 1.539062 -4.738281 1.46875 -4.328125 1.46875 -3.828125 C 1.46875 -3.328125 1.601562 -2.828125 1.875 -2.328125 C 2.15625 -1.828125 2.535156 -1.429688 3.015625 -1.140625 C 3.492188 -0.847656 3.972656 -0.703125 4.453125 -0.703125 C 4.929688 -0.703125 5.320312 -0.8125 5.625 -1.03125 C 5.925781 -1.25 6.15625 -1.523438 6.3125 -1.859375 C 6.46875 -2.203125 6.546875 -2.582031 6.546875 -3 C 6.546875 -3.863281 6.269531 -4.609375 5.71875 -5.234375 C 5.175781 -5.859375 4.441406 -6.171875 3.515625 -6.171875 C 3.085938 -6.171875 2.710938 -6.066406 2.390625 -5.859375 Z M 1.484375 -0.890625 C 1.160156 -1.203125 0.898438 -1.578125 0.703125 -2.015625 C 0.503906 -2.460938 0.40625 -2.988281 0.40625 -3.59375 C 0.40625 -4.195312 0.554688 -4.78125 0.859375 -5.34375 C 1.171875 -5.914062 1.613281 -6.359375 2.1875 -6.671875 C 2.769531 -6.992188 3.375 -7.15625 4 -7.15625 C 5.132812 -7.15625 6.035156 -6.796875 6.703125 -6.078125 C 7.378906 -5.367188 7.71875 -4.503906 7.71875 -3.484375 C 7.71875 -2.472656 7.363281 -1.617188 6.65625 -0.921875 C 5.945312 -0.222656 5.050781 0.125 3.96875 0.125 C 3.507812 0.125 3.0625 0.0351562 2.625 -0.140625 C 2.1875 -0.328125 1.804688 -0.578125 1.484375 -0.890625 Z M 1.484375 -0.890625 "/></g></g></g><g fill="#000000" fill-opacity="1"><g transform="translate(128.17497, 268.549935)"><g><path d="M 5.328125 -10.8125 L 5.34375 -10.9375 C 5.34375 -10.96875 5.351562 -10.988281 5.375 -11 C 5.40625 -11.019531 5.421875 -11.03125 5.421875 -11.03125 L 6.75 -12.015625 C 6.769531 -12.023438 6.820312 -12.03125 6.90625 -12.03125 C 6.988281 -12.03125 7.050781 -12.019531 7.09375 -12 C 7.132812 -11.976562 7.15625 -11.914062 7.15625 -11.8125 C 7.15625 -7.394531 7.160156 -3.976562 7.171875 -1.5625 C 7.191406 -1.488281 7.1875 -1.453125 7.15625 -1.453125 C 7.15625 -1.453125 7.171875 -1.4375 7.203125 -1.40625 C 7.234375 -1.382812 7.289062 -1.367188 7.375 -1.359375 C 7.46875 -1.359375 7.523438 -1.347656 7.546875 -1.328125 C 7.578125 -1.304688 7.59375 -1.25 7.59375 -1.15625 C 7.59375 -1.0625 7.582031 -1.007812 7.5625 -1 L 6.34375 0 C 6.320312 0.0078125 6.257812 0.015625 6.15625 0.015625 C 6.050781 0.015625 5.984375 0.00390625 5.953125 -0.015625 C 5.929688 -0.0351562 5.921875 -0.0664062 5.921875 -0.109375 C 5.921875 -0.148438 5.925781 -0.191406 5.9375 -0.234375 C 5.945312 -0.273438 5.941406 -0.328125 5.921875 -0.390625 C 5.910156 -0.453125 5.894531 -0.484375 5.875 -0.484375 C 5.851562 -0.492188 5.8125 -0.484375 5.75 -0.453125 L 5.546875 -0.328125 C 5.054688 -0.0234375 4.554688 0.125 4.046875 0.125 C 3.535156 0.125 3.0625 0.0351562 2.625 -0.140625 C 2.1875 -0.328125 1.804688 -0.578125 1.484375 -0.890625 C 1.160156 -1.203125 0.898438 -1.578125 0.703125 -2.015625 C 0.503906 -2.460938 0.40625 -2.988281 0.40625 -3.59375 C 0.40625 -4.195312 0.554688 -4.78125 0.859375 -5.34375 C 1.171875 -5.914062 1.613281 -6.359375 2.1875 -6.671875 C 2.769531 -6.992188 3.4375 -7.15625 4.1875 -7.15625 C 4.488281 -7.15625 4.804688 -7.082031 5.140625 -6.9375 C 5.472656 -6.789062 5.722656 -6.632812 5.890625 -6.46875 L 5.96875 -6.46875 C 5.96875 -8.0625 5.957031 -9.304688 5.9375 -10.203125 C 5.9375 -10.359375 5.894531 -10.46875 5.8125 -10.53125 C 5.738281 -10.601562 5.65625 -10.640625 5.5625 -10.640625 C 5.476562 -10.648438 5.425781 -10.671875 5.40625 -10.703125 C 5.351562 -10.722656 5.328125 -10.757812 5.328125 -10.8125 Z M 5.9375 -1.671875 L 5.953125 -4.875 C 5.722656 -5.269531 5.390625 -5.582031 4.953125 -5.8125 C 4.523438 -6.050781 4.046875 -6.171875 3.515625 -6.171875 C 2.804688 -6.171875 2.234375 -5.804688 1.796875 -5.078125 C 1.578125 -4.691406 1.46875 -4.320312 1.46875 -3.96875 C 1.46875 -3.0625 1.75 -2.320312 2.3125 -1.75 C 2.875 -1.1875 3.597656 -0.90625 4.484375 -0.90625 C 4.734375 -0.90625 4.988281 -0.976562 5.25 -1.125 C 5.519531 -1.28125 5.75 -1.460938 5.9375 -1.671875 Z M 5.9375 -1.671875 "/></g></g></g><g fill="#000000" fill-opacity="1"><g transform="translate(136.734532, 268.549935)"><g><path d="M 5.65625 -5.109375 C 5.363281 -5.929688 4.738281 -6.34375 3.78125 -6.34375 C 3.34375 -6.34375 2.941406 -6.226562 2.578125 -6 C 2.222656 -5.769531 1.945312 -5.472656 1.75 -5.109375 C 1.5625 -4.742188 1.46875 -4.398438 1.46875 -4.078125 C 1.46875 -3.765625 1.472656 -3.613281 1.484375 -3.625 L 5.640625 -5.0625 L 5.640625 -5.109375 Z M 1.65625 -2.84375 C 1.863281 -2.257812 2.21875 -1.800781 2.71875 -1.46875 C 3.21875 -1.144531 3.785156 -0.984375 4.421875 -0.984375 C 5.234375 -0.984375 5.972656 -1.363281 6.640625 -2.125 C 6.734375 -2.226562 6.882812 -2.175781 7.09375 -1.96875 C 7.101562 -1.957031 7.097656 -1.9375 7.078125 -1.90625 C 6.523438 -1.132812 6.09375 -0.640625 5.78125 -0.421875 C 5.257812 -0.0546875 4.65625 0.125 3.96875 0.125 C 3.5 0.125 3.046875 0.0351562 2.609375 -0.140625 C 1.710938 -0.535156 1.078125 -1.164062 0.703125 -2.03125 C 0.503906 -2.46875 0.40625 -2.988281 0.40625 -3.59375 C 0.40625 -4.195312 0.554688 -4.78125 0.859375 -5.34375 C 1.171875 -5.90625 1.613281 -6.347656 2.1875 -6.671875 C 2.769531 -6.992188 3.4375 -7.15625 4.1875 -7.15625 C 5.113281 -7.15625 5.9375 -6.726562 6.65625 -5.875 C 7.007812 -5.445312 7.1875 -5.101562 7.1875 -4.84375 Z M 1.65625 -2.84375 "/></g></g></g><g fill="#000000" fill-opacity="1"><g transform="translate(144.941328, 268.549935)"><g><path d="M 0.640625 -5.78125 L 0.640625 -5.90625 C 0.640625 -5.925781 0.65625 -5.945312 0.6875 -5.96875 C 0.71875 -5.988281 0.734375 -6 0.734375 -6 L 2.0625 -6.984375 C 2.082031 -6.992188 2.132812 -7 2.21875 -7 C 2.3125 -7 2.375 -6.988281 2.40625 -6.96875 C 2.445312 -6.945312 2.46875 -6.882812 2.46875 -6.78125 L 2.46875 -5.515625 C 2.488281 -5.554688 2.523438 -5.609375 2.578125 -5.671875 C 2.929688 -6.109375 3.296875 -6.445312 3.671875 -6.6875 C 4.054688 -6.925781 4.492188 -7.046875 4.984375 -7.046875 C 5.140625 -7.046875 5.226562 -7.03125 5.25 -7 C 5.332031 -6.769531 5.398438 -6.554688 5.453125 -6.359375 L 5.671875 -5.484375 C 5.691406 -5.429688 5.65625 -5.378906 5.5625 -5.328125 C 5.46875 -5.273438 5.394531 -5.25 5.34375 -5.25 C 5.300781 -5.257812 5.253906 -5.3125 5.203125 -5.40625 L 5.125 -5.53125 C 4.851562 -5.78125 4.539062 -5.878906 4.1875 -5.828125 C 3.84375 -5.773438 3.515625 -5.644531 3.203125 -5.4375 C 2.890625 -5.226562 2.660156 -5.003906 2.515625 -4.765625 C 2.515625 -4.753906 2.503906 -4.734375 2.484375 -4.703125 C 2.472656 -4.679688 2.46875 -4.664062 2.46875 -4.65625 L 2.46875 -1.28125 C 2.46875 -1.257812 2.460938 -1.207031 2.453125 -1.125 C 2.453125 -1.039062 2.453125 -0.988281 2.453125 -0.96875 C 2.492188 -0.65625 2.597656 -0.460938 2.765625 -0.390625 C 2.941406 -0.316406 3.03125 -0.253906 3.03125 -0.203125 C 3.03125 -0.0664062 3 0 2.9375 0 L 0.765625 0 C 0.703125 0 0.671875 -0.0390625 0.671875 -0.125 C 0.671875 -0.21875 0.6875 -0.273438 0.71875 -0.296875 C 0.757812 -0.328125 0.8125 -0.351562 0.875 -0.375 C 0.9375 -0.394531 0.984375 -0.425781 1.015625 -0.46875 C 1.085938 -0.539062 1.144531 -0.625 1.1875 -0.71875 C 1.226562 -0.8125 1.25 -0.921875 1.25 -1.046875 C 1.25 -1.179688 1.25 -1.257812 1.25 -1.28125 L 1.25 -5.171875 C 1.238281 -5.335938 1.195312 -5.453125 1.125 -5.515625 C 1.050781 -5.578125 0.96875 -5.609375 0.875 -5.609375 C 0.789062 -5.617188 0.734375 -5.632812 0.703125 -5.65625 C 0.660156 -5.6875 0.640625 -5.726562 0.640625 -5.78125 Z M 0.640625 -5.78125 "/></g></g></g><g fill="#000000" fill-opacity="1"><g transform="translate(151.274054, 268.549935)"><g><path d="M 0.75 0 C 0.6875 0 0.65625 -0.0390625 0.65625 -0.125 C 0.65625 -0.21875 0.675781 -0.273438 0.71875 -0.296875 C 0.757812 -0.328125 0.8125 -0.351562 0.875 -0.375 C 0.9375 -0.394531 0.984375 -0.425781 1.015625 -0.46875 C 1.160156 -0.613281 1.234375 -0.78125 1.234375 -0.96875 C 1.234375 -1.15625 1.234375 -1.257812 1.234375 -1.28125 L 1.234375 -5.171875 C 1.234375 -5.328125 1.191406 -5.4375 1.109375 -5.5 C 1.035156 -5.570312 0.953125 -5.609375 0.859375 -5.609375 C 0.773438 -5.617188 0.71875 -5.632812 0.6875 -5.65625 C 0.664062 -5.675781 0.648438 -5.695312 0.640625 -5.71875 C 0.628906 -5.738281 0.625 -5.753906 0.625 -5.765625 C 0.625 -5.785156 0.625 -5.8125 0.625 -5.84375 C 0.625 -5.875 0.625 -5.894531 0.625 -5.90625 C 0.625 -5.914062 0.628906 -5.925781 0.640625 -5.9375 C 0.648438 -5.945312 0.664062 -5.957031 0.6875 -5.96875 C 0.707031 -5.988281 0.71875 -6 0.71875 -6 L 2.046875 -6.984375 C 2.066406 -6.992188 2.117188 -7 2.203125 -7 C 2.296875 -7 2.359375 -6.988281 2.390625 -6.96875 C 2.429688 -6.945312 2.453125 -6.882812 2.453125 -6.78125 L 2.453125 -6.234375 L 2.828125 -6.453125 L 3.046875 -6.5625 C 3.722656 -6.90625 4.359375 -7.078125 4.953125 -7.078125 C 5.546875 -7.078125 6.128906 -6.863281 6.703125 -6.4375 C 6.960938 -6.25 7.175781 -6.019531 7.34375 -5.75 C 7.507812 -5.476562 7.59375 -5.195312 7.59375 -4.90625 L 7.59375 -0.96875 C 7.59375 -0.863281 7.617188 -0.75 7.671875 -0.625 C 7.734375 -0.507812 7.828125 -0.421875 7.953125 -0.359375 C 8.085938 -0.304688 8.15625 -0.253906 8.15625 -0.203125 C 8.15625 -0.0664062 8.125 0 8.0625 0 L 5.921875 0 C 5.847656 0 5.8125 -0.0390625 5.8125 -0.125 C 5.8125 -0.21875 5.832031 -0.273438 5.875 -0.296875 C 5.914062 -0.328125 5.96875 -0.351562 6.03125 -0.375 C 6.09375 -0.394531 6.144531 -0.425781 6.1875 -0.46875 C 6.226562 -0.507812 6.265625 -0.550781 6.296875 -0.59375 C 6.328125 -0.644531 6.347656 -0.703125 6.359375 -0.765625 C 6.367188 -0.835938 6.375 -0.890625 6.375 -0.921875 C 6.382812 -0.953125 6.382812 -1.007812 6.375 -1.09375 C 6.375 -1.1875 6.375 -1.25 6.375 -1.28125 L 6.375 -4.71875 C 6.375 -5.007812 6.273438 -5.265625 6.078125 -5.484375 C 5.703125 -5.898438 5.171875 -6.109375 4.484375 -6.109375 C 3.804688 -6.109375 3.128906 -5.9375 2.453125 -5.59375 L 2.453125 -0.96875 C 2.453125 -0.863281 2.476562 -0.75 2.53125 -0.625 C 2.59375 -0.507812 2.6875 -0.421875 2.8125 -0.359375 C 2.945312 -0.304688 3.015625 -0.253906 3.015625 -0.203125 C 3.015625 -0.0664062 2.984375 0 2.921875 0 Z M 0.75 0 "/></g></g></g><g fill="#000000" fill-opacity="1"><g transform="translate(160.436255, 268.549935)"><g/></g></g><g fill="#000000" fill-opacity="1"><g transform="translate(164.725881, 268.549935)"><g><path d="M 6.78125 -0.84375 C 7.882812 -0.84375 8.875 -1.09375 9.75 -1.59375 C 10.625 -2.09375 11.34375 -2.757812 11.90625 -3.59375 C 11.96875 -3.695312 12.015625 -3.726562 12.046875 -3.6875 C 12.078125 -3.65625 12.117188 -3.601562 12.171875 -3.53125 L 12.40625 -3.203125 C 12.476562 -3.078125 12.503906 -3 12.484375 -2.96875 C 12.191406 -2.375 11.695312 -1.789062 11 -1.21875 C 9.726562 -0.15625 8.320312 0.375 6.78125 0.375 C 5.882812 0.375 5.046875 0.203125 4.265625 -0.140625 C 3.492188 -0.484375 2.835938 -0.941406 2.296875 -1.515625 C 1.765625 -2.097656 1.347656 -2.773438 1.046875 -3.546875 C 0.742188 -4.328125 0.59375 -5.132812 0.59375 -5.96875 C 0.59375 -6.800781 0.753906 -7.597656 1.078125 -8.359375 C 1.410156 -9.117188 1.851562 -9.773438 2.40625 -10.328125 C 2.957031 -10.890625 3.613281 -11.335938 4.375 -11.671875 C 5.132812 -12.003906 5.898438 -12.171875 6.671875 -12.171875 C 7.597656 -12.171875 8.53125 -11.992188 9.46875 -11.640625 L 9.796875 -11.515625 C 9.847656 -11.492188 9.914062 -11.507812 10 -11.5625 C 10.09375 -11.625 10.1875 -11.65625 10.28125 -11.65625 C 10.382812 -11.65625 10.460938 -11.609375 10.515625 -11.515625 C 10.535156 -11.503906 10.539062 -11.453125 10.53125 -11.359375 C 10.519531 -11.222656 10.582031 -10.898438 10.71875 -10.390625 L 10.890625 -9.578125 C 10.941406 -9.367188 10.96875 -9.234375 10.96875 -9.171875 C 10.96875 -9.140625 10.90625 -9.09375 10.78125 -9.03125 C 10.65625 -8.976562 10.582031 -8.96875 10.5625 -9 C 10.15625 -9.707031 9.644531 -10.195312 9.03125 -10.46875 C 8.414062 -10.738281 7.648438 -10.875 6.734375 -10.875 C 5.816406 -10.875 4.988281 -10.664062 4.25 -10.25 C 3.507812 -9.832031 2.9375 -9.253906 2.53125 -8.515625 C 2.132812 -7.773438 1.9375 -6.929688 1.9375 -5.984375 C 1.9375 -5.367188 2.078125 -4.742188 2.359375 -4.109375 C 2.640625 -3.484375 3.003906 -2.929688 3.453125 -2.453125 C 3.898438 -1.972656 4.421875 -1.582031 5.015625 -1.28125 C 5.609375 -0.988281 6.195312 -0.84375 6.78125 -0.84375 Z M 6.78125 -0.84375 "/></g></g></g><g fill="#000000" fill-opacity="1"><g transform="translate(178.238856, 268.549935)"><g><path d="M 0.6875 -10.8125 L 0.703125 -10.9375 C 0.703125 -10.96875 0.710938 -10.988281 0.734375 -11 C 0.765625 -11.019531 0.78125 -11.03125 0.78125 -11.03125 L 2.109375 -12.015625 C 2.128906 -12.023438 2.15625 -12.03125 2.1875 -12.03125 C 2.394531 -12.03125 2.5 -11.957031 2.5 -11.8125 L 2.5 -1.28125 C 2.5 -1.25 2.5 -1.195312 2.5 -1.125 C 2.5 -1.050781 2.5 -1 2.5 -0.96875 C 2.53125 -0.644531 2.632812 -0.453125 2.8125 -0.390625 C 2.988281 -0.316406 3.078125 -0.253906 3.078125 -0.203125 C 3.078125 -0.0664062 3.039062 0 2.96875 0 L 0.8125 0 C 0.75 0 0.71875 -0.0390625 0.71875 -0.125 C 0.71875 -0.21875 0.738281 -0.273438 0.78125 -0.296875 C 0.820312 -0.328125 0.875 -0.351562 0.9375 -0.375 C 1 -0.394531 1.046875 -0.421875 1.078125 -0.453125 C 1.117188 -0.492188 1.15625 -0.535156 1.1875 -0.578125 C 1.21875 -0.628906 1.238281 -0.671875 1.25 -0.703125 C 1.257812 -0.734375 1.269531 -0.78125 1.28125 -0.84375 C 1.289062 -0.90625 1.296875 -0.945312 1.296875 -0.96875 L 1.296875 -10.203125 C 1.296875 -10.367188 1.253906 -10.484375 1.171875 -10.546875 C 1.097656 -10.609375 1.015625 -10.640625 0.921875 -10.640625 C 0.835938 -10.648438 0.78125 -10.671875 0.75 -10.703125 C 0.707031 -10.722656 0.6875 -10.757812 0.6875 -10.8125 Z M 0.6875 -10.8125 "/></g></g></g><g fill="#000000" fill-opacity="1"><g transform="translate(182.660769, 268.549935)"><g><path d="M 2.390625 -5.859375 C 2.078125 -5.648438 1.84375 -5.382812 1.6875 -5.0625 C 1.539062 -4.738281 1.46875 -4.328125 1.46875 -3.828125 C 1.46875 -3.328125 1.601562 -2.828125 1.875 -2.328125 C 2.15625 -1.828125 2.535156 -1.429688 3.015625 -1.140625 C 3.492188 -0.847656 3.972656 -0.703125 4.453125 -0.703125 C 4.929688 -0.703125 5.320312 -0.8125 5.625 -1.03125 C 5.925781 -1.25 6.15625 -1.523438 6.3125 -1.859375 C 6.46875 -2.203125 6.546875 -2.582031 6.546875 -3 C 6.546875 -3.863281 6.269531 -4.609375 5.71875 -5.234375 C 5.175781 -5.859375 4.441406 -6.171875 3.515625 -6.171875 C 3.085938 -6.171875 2.710938 -6.066406 2.390625 -5.859375 Z M 1.484375 -0.890625 C 1.160156 -1.203125 0.898438 -1.578125 0.703125 -2.015625 C 0.503906 -2.460938 0.40625 -2.988281 0.40625 -3.59375 C 0.40625 -4.195312 0.554688 -4.78125 0.859375 -5.34375 C 1.171875 -5.914062 1.613281 -6.359375 2.1875 -6.671875 C 2.769531 -6.992188 3.375 -7.15625 4 -7.15625 C 5.132812 -7.15625 6.035156 -6.796875 6.703125 -6.078125 C 7.378906 -5.367188 7.71875 -4.503906 7.71875 -3.484375 C 7.71875 -2.472656 7.363281 -1.617188 6.65625 -0.921875 C 5.945312 -0.222656 5.050781 0.125 3.96875 0.125 C 3.507812 0.125 3.0625 0.0351562 2.625 -0.140625 C 2.1875 -0.328125 1.804688 -0.578125 1.484375 -0.890625 Z M 1.484375 -0.890625 "/></g></g></g><g fill="#000000" fill-opacity="1"><g transform="translate(191.301171, 268.549935)"><g><path d="M 1.609375 -8.3125 C 1.617188 -8.40625 1.703125 -8.453125 1.859375 -8.453125 C 2.023438 -8.453125 2.109375 -8.40625 2.109375 -8.3125 L 2.109375 -7 L 3.421875 -7 C 3.671875 -7 3.796875 -6.96875 3.796875 -6.90625 L 3.796875 -6.265625 C 3.796875 -6.203125 3.671875 -6.171875 3.421875 -6.171875 L 2.109375 -6.171875 L 2.109375 -1.609375 C 2.109375 -1.023438 2.28125 -0.695312 2.625 -0.625 C 2.882812 -0.570312 3.15625 -0.671875 3.4375 -0.921875 C 3.550781 -1.023438 3.628906 -1.046875 3.671875 -0.984375 C 3.722656 -0.929688 3.757812 -0.890625 3.78125 -0.859375 C 3.800781 -0.835938 3.8125 -0.8125 3.8125 -0.78125 C 3.8125 -0.75 3.8125 -0.726562 3.8125 -0.71875 C 3.8125 -0.695312 3.78125 -0.65625 3.71875 -0.59375 L 3.578125 -0.46875 C 3.066406 -0.0195312 2.566406 0.179688 2.078125 0.140625 C 1.597656 0.0976562 1.257812 -0.179688 1.0625 -0.703125 C 0.957031 -0.984375 0.90625 -1.328125 0.90625 -1.734375 L 0.90625 -6.171875 L 0.5625 -6.171875 C 0.3125 -6.171875 0.1875 -6.203125 0.1875 -6.265625 L 0.1875 -6.90625 C 0.1875 -6.96875 0.289062 -7 0.5 -7 C 0.863281 -7 1.125 -7.125 1.28125 -7.375 C 1.4375 -7.632812 1.546875 -7.945312 1.609375 -8.3125 Z M 1.609375 -8.3125 "/></g></g></g><g fill="#000000" fill-opacity="1"><g transform="translate(195.737783, 268.549935)"><g><path d="M 0.6875 -10.8125 L 0.703125 -10.9375 C 0.703125 -10.957031 0.726562 -10.988281 0.78125 -11.03125 L 2.109375 -12.015625 C 2.128906 -12.023438 2.179688 -12.03125 2.265625 -12.03125 C 2.359375 -12.03125 2.421875 -12.019531 2.453125 -12 C 2.484375 -11.976562 2.5 -11.914062 2.5 -11.8125 L 2.5 -6.234375 C 2.664062 -6.328125 2.789062 -6.394531 2.875 -6.4375 L 3.109375 -6.5625 C 3.796875 -6.90625 4.4375 -7.078125 5.03125 -7.078125 C 5.625 -7.078125 6.207031 -6.863281 6.78125 -6.4375 C 7.03125 -6.25 7.238281 -6.019531 7.40625 -5.75 C 7.570312 -5.476562 7.65625 -5.195312 7.65625 -4.90625 L 7.65625 -1.28125 C 7.65625 -1.257812 7.648438 -1.207031 7.640625 -1.125 C 7.640625 -1.039062 7.644531 -0.988281 7.65625 -0.96875 C 7.6875 -0.65625 7.789062 -0.460938 7.96875 -0.390625 C 8.144531 -0.316406 8.234375 -0.253906 8.234375 -0.203125 C 8.234375 -0.0664062 8.203125 0 8.140625 0 L 5.96875 0 C 5.90625 0 5.875 -0.0390625 5.875 -0.125 C 5.875 -0.21875 5.890625 -0.273438 5.921875 -0.296875 C 5.960938 -0.328125 6.015625 -0.351562 6.078125 -0.375 C 6.140625 -0.394531 6.191406 -0.425781 6.234375 -0.46875 C 6.273438 -0.507812 6.3125 -0.550781 6.34375 -0.59375 C 6.375 -0.644531 6.394531 -0.703125 6.40625 -0.765625 C 6.414062 -0.828125 6.421875 -0.875 6.421875 -0.90625 C 6.429688 -0.945312 6.429688 -1.007812 6.421875 -1.09375 C 6.421875 -1.1875 6.421875 -1.25 6.421875 -1.28125 L 6.421875 -4.71875 C 6.421875 -5.019531 6.320312 -5.28125 6.125 -5.5 C 5.75 -5.90625 5.222656 -6.109375 4.546875 -6.109375 C 3.867188 -6.109375 3.1875 -5.9375 2.5 -5.59375 L 2.5 -1.28125 C 2.5 -1.257812 2.5 -1.207031 2.5 -1.125 C 2.5 -1.039062 2.5 -0.988281 2.5 -0.96875 C 2.539062 -0.65625 2.644531 -0.460938 2.8125 -0.390625 C 2.988281 -0.316406 3.078125 -0.253906 3.078125 -0.203125 C 3.078125 -0.0664062 3.046875 0 2.984375 0 L 0.8125 0 C 0.75 0 0.71875 -0.0390625 0.71875 -0.125 C 0.71875 -0.21875 0.738281 -0.273438 0.78125 -0.296875 C 0.820312 -0.328125 0.875 -0.351562 0.9375 -0.375 C 1 -0.394531 1.046875 -0.425781 1.078125 -0.46875 C 1.234375 -0.613281 1.304688 -0.78125 1.296875 -0.96875 C 1.296875 -1.15625 1.296875 -1.257812 1.296875 -1.28125 L 1.296875 -10.203125 C 1.296875 -10.359375 1.253906 -10.46875 1.171875 -10.53125 C 1.097656 -10.601562 1.015625 -10.640625 0.921875 -10.640625 C 0.835938 -10.648438 0.78125 -10.671875 0.75 -10.703125 C 0.707031 -10.722656 0.6875 -10.757812 0.6875 -10.8125 Z M 0.6875 -10.8125 "/></g></g></g><g fill="#000000" fill-opacity="1"><g transform="translate(205.069016, 268.549935)"><g><path d="M 2.453125 -10.65625 L 2.453125 -10.0625 C 2.453125 -10.007812 2.4375 -9.972656 2.40625 -9.953125 C 2.382812 -9.941406 2.28125 -9.898438 2.09375 -9.828125 C 1.914062 -9.765625 1.78125 -9.707031 1.6875 -9.65625 C 1.601562 -9.613281 1.53125 -9.582031 1.46875 -9.5625 C 1.40625 -9.539062 1.367188 -9.539062 1.359375 -9.5625 C 1.347656 -9.582031 1.34375 -9.675781 1.34375 -9.84375 L 1.34375 -10.546875 C 1.34375 -10.554688 1.335938 -10.578125 1.328125 -10.609375 C 1.328125 -10.640625 1.328125 -10.660156 1.328125 -10.671875 C 1.335938 -10.679688 1.34375 -10.691406 1.34375 -10.703125 C 1.34375 -10.722656 1.351562 -10.742188 1.375 -10.765625 C 1.394531 -10.785156 1.492188 -10.828125 1.671875 -10.890625 C 1.859375 -10.960938 2 -11.023438 2.09375 -11.078125 C 2.289062 -11.171875 2.398438 -11.203125 2.421875 -11.171875 C 2.441406 -11.148438 2.453125 -10.976562 2.453125 -10.65625 Z M 0.78125 0 C 0.71875 0 0.6875 -0.0390625 0.6875 -0.125 C 0.6875 -0.21875 0.703125 -0.273438 0.734375 -0.296875 C 0.773438 -0.328125 0.828125 -0.351562 0.890625 -0.375 C 1.128906 -0.46875 1.253906 -0.703125 1.265625 -1.078125 L 1.265625 -5.171875 C 1.265625 -5.328125 1.222656 -5.4375 1.140625 -5.5 C 1.066406 -5.570312 0.984375 -5.609375 0.890625 -5.609375 C 0.804688 -5.617188 0.742188 -5.632812 0.703125 -5.65625 C 0.671875 -5.6875 0.65625 -5.738281 0.65625 -5.8125 C 0.65625 -5.882812 0.660156 -5.925781 0.671875 -5.9375 C 0.679688 -5.945312 0.691406 -5.957031 0.703125 -5.96875 C 0.722656 -5.988281 0.738281 -6 0.75 -6 L 2.078125 -6.984375 C 2.109375 -7.003906 2.132812 -7.007812 2.15625 -7 C 2.175781 -6.988281 2.234375 -6.96875 2.328125 -6.9375 C 2.421875 -6.90625 2.46875 -6.851562 2.46875 -6.78125 L 2.46875 -1.046875 C 2.46875 -0.691406 2.59375 -0.46875 2.84375 -0.375 C 2.976562 -0.3125 3.046875 -0.253906 3.046875 -0.203125 C 3.046875 -0.0664062 3.015625 0 2.953125 0 Z M 0.78125 0 "/></g></g></g><g fill="#000000" fill-opacity="1"><g transform="translate(209.321896, 268.549935)"><g><path d="M 0.75 0 C 0.6875 0 0.65625 -0.0390625 0.65625 -0.125 C 0.65625 -0.21875 0.675781 -0.273438 0.71875 -0.296875 C 0.757812 -0.328125 0.8125 -0.351562 0.875 -0.375 C 0.9375 -0.394531 0.984375 -0.425781 1.015625 -0.46875 C 1.160156 -0.613281 1.234375 -0.78125 1.234375 -0.96875 C 1.234375 -1.15625 1.234375 -1.257812 1.234375 -1.28125 L 1.234375 -5.171875 C 1.234375 -5.328125 1.191406 -5.4375 1.109375 -5.5 C 1.035156 -5.570312 0.953125 -5.609375 0.859375 -5.609375 C 0.773438 -5.617188 0.71875 -5.632812 0.6875 -5.65625 C 0.664062 -5.675781 0.648438 -5.695312 0.640625 -5.71875 C 0.628906 -5.738281 0.625 -5.753906 0.625 -5.765625 C 0.625 -5.785156 0.625 -5.8125 0.625 -5.84375 C 0.625 -5.875 0.625 -5.894531 0.625 -5.90625 C 0.625 -5.914062 0.628906 -5.925781 0.640625 -5.9375 C 0.648438 -5.945312 0.664062 -5.957031 0.6875 -5.96875 C 0.707031 -5.988281 0.71875 -6 0.71875 -6 L 2.046875 -6.984375 C 2.066406 -6.992188 2.117188 -7 2.203125 -7 C 2.296875 -7 2.359375 -6.988281 2.390625 -6.96875 C 2.429688 -6.945312 2.453125 -6.882812 2.453125 -6.78125 L 2.453125 -6.234375 L 2.828125 -6.453125 L 3.046875 -6.5625 C 3.722656 -6.90625 4.359375 -7.078125 4.953125 -7.078125 C 5.546875 -7.078125 6.128906 -6.863281 6.703125 -6.4375 C 6.960938 -6.25 7.175781 -6.019531 7.34375 -5.75 C 7.507812 -5.476562 7.59375 -5.195312 7.59375 -4.90625 L 7.59375 -0.96875 C 7.59375 -0.863281 7.617188 -0.75 7.671875 -0.625 C 7.734375 -0.507812 7.828125 -0.421875 7.953125 -0.359375 C 8.085938 -0.304688 8.15625 -0.253906 8.15625 -0.203125 C 8.15625 -0.0664062 8.125 0 8.0625 0 L 5.921875 0 C 5.847656 0 5.8125 -0.0390625 5.8125 -0.125 C 5.8125 -0.21875 5.832031 -0.273438 5.875 -0.296875 C 5.914062 -0.328125 5.96875 -0.351562 6.03125 -0.375 C 6.09375 -0.394531 6.144531 -0.425781 6.1875 -0.46875 C 6.226562 -0.507812 6.265625 -0.550781 6.296875 -0.59375 C 6.328125 -0.644531 6.347656 -0.703125 6.359375 -0.765625 C 6.367188 -0.835938 6.375 -0.890625 6.375 -0.921875 C 6.382812 -0.953125 6.382812 -1.007812 6.375 -1.09375 C 6.375 -1.1875 6.375 -1.25 6.375 -1.28125 L 6.375 -4.71875 C 6.375 -5.007812 6.273438 -5.265625 6.078125 -5.484375 C 5.703125 -5.898438 5.171875 -6.109375 4.484375 -6.109375 C 3.804688 -6.109375 3.128906 -5.9375 2.453125 -5.59375 L 2.453125 -0.96875 C 2.453125 -0.863281 2.476562 -0.75 2.53125 -0.625 C 2.59375 -0.507812 2.6875 -0.421875 2.8125 -0.359375 C 2.945312 -0.304688 3.015625 -0.253906 3.015625 -0.203125 C 3.015625 -0.0664062 2.984375 0 2.921875 0 Z M 0.75 0 "/></g></g></g><g fill="#000000" fill-opacity="1"><g transform="translate(218.484097, 268.549935)"><g><path d="M 2.125 -1.953125 C 1.988281 -1.898438 2.023438 -1.796875 2.234375 -1.640625 C 2.453125 -1.492188 2.789062 -1.367188 3.25 -1.265625 C 3.707031 -1.171875 4.097656 -1.097656 4.421875 -1.046875 C 4.753906 -0.992188 5.097656 -0.914062 5.453125 -0.8125 C 5.804688 -0.707031 6.109375 -0.585938 6.359375 -0.453125 C 6.617188 -0.328125 6.832031 -0.148438 7 0.078125 C 7.164062 0.316406 7.25 0.59375 7.25 0.90625 C 7.25 1.21875 7.175781 1.503906 7.03125 1.765625 C 6.5625 2.617188 5.429688 3.046875 3.640625 3.046875 C 2.816406 3.046875 2.078125 2.847656 1.421875 2.453125 C 0.773438 2.054688 0.378906 1.5 0.234375 0.78125 L 0.234375 0.6875 C 0.234375 0.644531 0.234375 0.617188 0.234375 0.609375 L 1.5 -0.484375 C 1.539062 -0.484375 1.59375 -0.453125 1.65625 -0.390625 C 1.71875 -0.328125 1.75 -0.273438 1.75 -0.234375 C 1.75 -0.191406 1.707031 -0.128906 1.625 -0.046875 C 1.550781 0.0234375 1.515625 0.234375 1.515625 0.578125 C 1.515625 0.929688 1.660156 1.25 1.953125 1.53125 C 2.242188 1.820312 2.59375 2.023438 3 2.140625 C 3.875 2.285156 4.625 2.238281 5.25 2 C 5.457031 1.914062 5.628906 1.785156 5.765625 1.609375 C 5.910156 1.441406 5.984375 1.257812 5.984375 1.0625 C 5.984375 0.875 5.882812 0.722656 5.6875 0.609375 C 5.414062 0.441406 4.738281 0.234375 3.65625 -0.015625 C 2.582031 -0.265625 1.773438 -0.503906 1.234375 -0.734375 C 1.128906 -0.773438 1.078125 -0.804688 1.078125 -0.828125 C 1.078125 -0.859375 1.148438 -1.015625 1.296875 -1.296875 C 1.441406 -1.585938 1.609375 -1.875 1.796875 -2.15625 C 1.460938 -2.394531 1.191406 -2.703125 0.984375 -3.078125 C 0.785156 -3.453125 0.6875 -3.847656 0.6875 -4.265625 C 0.6875 -5.085938 0.941406 -5.757812 1.453125 -6.28125 C 1.972656 -6.800781 2.617188 -7.0625 3.390625 -7.0625 C 4.160156 -7.0625 4.796875 -6.816406 5.296875 -6.328125 L 5.328125 -6.34375 C 5.515625 -6.738281 5.613281 -6.945312 5.625 -6.96875 C 5.632812 -6.988281 5.648438 -7 5.671875 -7 L 6.90625 -7 C 6.9375 -7 6.96875 -6.960938 7 -6.890625 C 7.039062 -6.816406 7.050781 -6.773438 7.03125 -6.765625 C 6.914062 -6.710938 6.773438 -6.648438 6.609375 -6.578125 C 6.273438 -6.441406 6 -6.148438 5.78125 -5.703125 C 6 -5.273438 6.109375 -4.828125 6.109375 -4.359375 C 6.109375 -3.585938 5.84375 -2.941406 5.3125 -2.421875 C 4.789062 -1.898438 4.128906 -1.640625 3.328125 -1.640625 C 2.921875 -1.640625 2.519531 -1.742188 2.125 -1.953125 Z M 2.984375 -6.171875 C 2.046875 -6.171875 1.578125 -5.65625 1.578125 -4.625 C 1.578125 -4.03125 1.800781 -3.53125 2.25 -3.125 C 2.695312 -2.71875 3.1875 -2.515625 3.71875 -2.515625 C 4.25 -2.515625 4.625 -2.628906 4.84375 -2.859375 C 5.070312 -3.097656 5.1875 -3.492188 5.1875 -4.046875 C 5.1875 -4.609375 4.972656 -5.101562 4.546875 -5.53125 C 4.128906 -5.957031 3.609375 -6.171875 2.984375 -6.171875 Z M 2.984375 -6.171875 "/></g></g></g><g fill="#000000" fill-opacity="1"><g transform="translate(226.426316, 268.549935)"><g/></g></g><g fill="#000000" fill-opacity="1"><g transform="translate(230.715942, 268.549935)"><g><path d="M 2.546875 -0.09375 C 2.398438 -0.125 2.238281 -0.164062 2.0625 -0.21875 C 1.882812 -0.28125 1.769531 -0.3125 1.71875 -0.3125 L 1.640625 -0.3125 C 1.460938 -0.3125 1.328125 -0.210938 1.234375 -0.015625 C 1.234375 -0.00390625 1.226562 0 1.21875 0 L 1.015625 0 C 0.984375 0 0.960938 -0.0078125 0.953125 -0.03125 L 0.328125 -2.203125 C 0.296875 -2.304688 0.367188 -2.359375 0.546875 -2.359375 C 0.609375 -2.359375 0.648438 -2.34375 0.671875 -2.3125 C 0.703125 -2.289062 0.722656 -2.273438 0.734375 -2.265625 C 0.742188 -2.253906 0.765625 -2.21875 0.796875 -2.15625 C 1.441406 -1.363281 2.390625 -0.96875 3.640625 -0.96875 C 4.296875 -0.96875 4.84375 -1.140625 5.28125 -1.484375 C 5.71875 -1.828125 5.9375 -2.332031 5.9375 -3 C 5.9375 -3.457031 5.863281 -3.796875 5.71875 -4.015625 C 5.570312 -4.234375 5.453125 -4.398438 5.359375 -4.515625 C 5.160156 -4.753906 4.691406 -5.082031 3.953125 -5.5 C 3.210938 -5.925781 2.609375 -6.304688 2.140625 -6.640625 C 0.972656 -7.484375 0.390625 -8.351562 0.390625 -9.25 C 0.390625 -10.15625 0.664062 -10.851562 1.21875 -11.34375 C 1.78125 -11.832031 2.523438 -12.078125 3.453125 -12.078125 C 3.972656 -12.078125 4.519531 -11.9375 5.09375 -11.65625 C 5.375 -11.519531 5.578125 -11.429688 5.703125 -11.390625 C 5.828125 -11.347656 5.914062 -11.375 5.96875 -11.46875 C 6.019531 -11.5625 6.050781 -11.609375 6.0625 -11.609375 C 6.28125 -11.628906 6.390625 -11.59375 6.390625 -11.5 L 6.609375 -9.140625 C 6.609375 -9.097656 6.492188 -9.078125 6.265625 -9.078125 C 6.234375 -9.078125 6.207031 -9.125 6.1875 -9.21875 C 6.03125 -9.71875 5.671875 -10.128906 5.109375 -10.453125 C 4.554688 -10.785156 4 -10.953125 3.4375 -10.953125 C 2.25 -10.953125 1.65625 -10.460938 1.65625 -9.484375 C 1.65625 -8.773438 2.300781 -8.066406 3.59375 -7.359375 L 4.984375 -6.609375 C 5.835938 -6.140625 6.4375 -5.628906 6.78125 -5.078125 C 7.132812 -4.523438 7.3125 -3.9375 7.3125 -3.3125 L 7.3125 -3.234375 C 7.1875 -2.390625 7.035156 -1.816406 6.859375 -1.515625 C 6.578125 -1.015625 6.171875 -0.613281 5.640625 -0.3125 C 5.117188 -0.0078125 4.523438 0.140625 3.859375 0.140625 C 3.492188 0.128906 3.195312 0.09375 2.96875 0.03125 Z M 2.546875 -0.09375 "/></g></g></g><g fill="#000000" fill-opacity="1"><g transform="translate(238.834545, 268.549935)"><g><path d="M 1.609375 -8.3125 C 1.617188 -8.40625 1.703125 -8.453125 1.859375 -8.453125 C 2.023438 -8.453125 2.109375 -8.40625 2.109375 -8.3125 L 2.109375 -7 L 3.421875 -7 C 3.671875 -7 3.796875 -6.96875 3.796875 -6.90625 L 3.796875 -6.265625 C 3.796875 -6.203125 3.671875 -6.171875 3.421875 -6.171875 L 2.109375 -6.171875 L 2.109375 -1.609375 C 2.109375 -1.023438 2.28125 -0.695312 2.625 -0.625 C 2.882812 -0.570312 3.15625 -0.671875 3.4375 -0.921875 C 3.550781 -1.023438 3.628906 -1.046875 3.671875 -0.984375 C 3.722656 -0.929688 3.757812 -0.890625 3.78125 -0.859375 C 3.800781 -0.835938 3.8125 -0.8125 3.8125 -0.78125 C 3.8125 -0.75 3.8125 -0.726562 3.8125 -0.71875 C 3.8125 -0.695312 3.78125 -0.65625 3.71875 -0.59375 L 3.578125 -0.46875 C 3.066406 -0.0195312 2.566406 0.179688 2.078125 0.140625 C 1.597656 0.0976562 1.257812 -0.179688 1.0625 -0.703125 C 0.957031 -0.984375 0.90625 -1.328125 0.90625 -1.734375 L 0.90625 -6.171875 L 0.5625 -6.171875 C 0.3125 -6.171875 0.1875 -6.203125 0.1875 -6.265625 L 0.1875 -6.90625 C 0.1875 -6.96875 0.289062 -7 0.5 -7 C 0.863281 -7 1.125 -7.125 1.28125 -7.375 C 1.4375 -7.632812 1.546875 -7.945312 1.609375 -8.3125 Z M 1.609375 -8.3125 "/></g></g></g><g fill="#000000" fill-opacity="1"><g transform="translate(243.271157, 268.549935)"><g><path d="M 2.390625 -5.859375 C 2.078125 -5.648438 1.84375 -5.382812 1.6875 -5.0625 C 1.539062 -4.738281 1.46875 -4.328125 1.46875 -3.828125 C 1.46875 -3.328125 1.601562 -2.828125 1.875 -2.328125 C 2.15625 -1.828125 2.535156 -1.429688 3.015625 -1.140625 C 3.492188 -0.847656 3.972656 -0.703125 4.453125 -0.703125 C 4.929688 -0.703125 5.320312 -0.8125 5.625 -1.03125 C 5.925781 -1.25 6.15625 -1.523438 6.3125 -1.859375 C 6.46875 -2.203125 6.546875 -2.582031 6.546875 -3 C 6.546875 -3.863281 6.269531 -4.609375 5.71875 -5.234375 C 5.175781 -5.859375 4.441406 -6.171875 3.515625 -6.171875 C 3.085938 -6.171875 2.710938 -6.066406 2.390625 -5.859375 Z M 1.484375 -0.890625 C 1.160156 -1.203125 0.898438 -1.578125 0.703125 -2.015625 C 0.503906 -2.460938 0.40625 -2.988281 0.40625 -3.59375 C 0.40625 -4.195312 0.554688 -4.78125 0.859375 -5.34375 C 1.171875 -5.914062 1.613281 -6.359375 2.1875 -6.671875 C 2.769531 -6.992188 3.375 -7.15625 4 -7.15625 C 5.132812 -7.15625 6.035156 -6.796875 6.703125 -6.078125 C 7.378906 -5.367188 7.71875 -4.503906 7.71875 -3.484375 C 7.71875 -2.472656 7.363281 -1.617188 6.65625 -0.921875 C 5.945312 -0.222656 5.050781 0.125 3.96875 0.125 C 3.507812 0.125 3.0625 0.0351562 2.625 -0.140625 C 2.1875 -0.328125 1.804688 -0.578125 1.484375 -0.890625 Z M 1.484375 -0.890625 "/></g></g></g><g fill="#000000" fill-opacity="1"><g transform="translate(251.911558, 268.549935)"><g><path d="M 0.640625 -5.78125 L 0.640625 -5.90625 C 0.640625 -5.925781 0.65625 -5.945312 0.6875 -5.96875 C 0.71875 -5.988281 0.734375 -6 0.734375 -6 L 2.0625 -6.984375 C 2.082031 -6.992188 2.132812 -7 2.21875 -7 C 2.3125 -7 2.375 -6.988281 2.40625 -6.96875 C 2.445312 -6.945312 2.46875 -6.882812 2.46875 -6.78125 L 2.46875 -5.515625 C 2.488281 -5.554688 2.523438 -5.609375 2.578125 -5.671875 C 2.929688 -6.109375 3.296875 -6.445312 3.671875 -6.6875 C 4.054688 -6.925781 4.492188 -7.046875 4.984375 -7.046875 C 5.140625 -7.046875 5.226562 -7.03125 5.25 -7 C 5.332031 -6.769531 5.398438 -6.554688 5.453125 -6.359375 L 5.671875 -5.484375 C 5.691406 -5.429688 5.65625 -5.378906 5.5625 -5.328125 C 5.46875 -5.273438 5.394531 -5.25 5.34375 -5.25 C 5.300781 -5.257812 5.253906 -5.3125 5.203125 -5.40625 L 5.125 -5.53125 C 4.851562 -5.78125 4.539062 -5.878906 4.1875 -5.828125 C 3.84375 -5.773438 3.515625 -5.644531 3.203125 -5.4375 C 2.890625 -5.226562 2.660156 -5.003906 2.515625 -4.765625 C 2.515625 -4.753906 2.503906 -4.734375 2.484375 -4.703125 C 2.472656 -4.679688 2.46875 -4.664062 2.46875 -4.65625 L 2.46875 -1.28125 C 2.46875 -1.257812 2.460938 -1.207031 2.453125 -1.125 C 2.453125 -1.039062 2.453125 -0.988281 2.453125 -0.96875 C 2.492188 -0.65625 2.597656 -0.460938 2.765625 -0.390625 C 2.941406 -0.316406 3.03125 -0.253906 3.03125 -0.203125 C 3.03125 -0.0664062 3 0 2.9375 0 L 0.765625 0 C 0.703125 0 0.671875 -0.0390625 0.671875 -0.125 C 0.671875 -0.21875 0.6875 -0.273438 0.71875 -0.296875 C 0.757812 -0.328125 0.8125 -0.351562 0.875 -0.375 C 0.9375 -0.394531 0.984375 -0.425781 1.015625 -0.46875 C 1.085938 -0.539062 1.144531 -0.625 1.1875 -0.71875 C 1.226562 -0.8125 1.25 -0.921875 1.25 -1.046875 C 1.25 -1.179688 1.25 -1.257812 1.25 -1.28125 L 1.25 -5.171875 C 1.238281 -5.335938 1.195312 -5.453125 1.125 -5.515625 C 1.050781 -5.578125 0.96875 -5.609375 0.875 -5.609375 C 0.789062 -5.617188 0.734375 -5.632812 0.703125 -5.65625 C 0.660156 -5.6875 0.640625 -5.726562 0.640625 -5.78125 Z M 0.640625 -5.78125 "/></g></g></g><g fill="#000000" fill-opacity="1"><g transform="translate(258.244285, 268.549935)"><g><path d="M 5.65625 -5.109375 C 5.363281 -5.929688 4.738281 -6.34375 3.78125 -6.34375 C 3.34375 -6.34375 2.941406 -6.226562 2.578125 -6 C 2.222656 -5.769531 1.945312 -5.472656 1.75 -5.109375 C 1.5625 -4.742188 1.46875 -4.398438 1.46875 -4.078125 C 1.46875 -3.765625 1.472656 -3.613281 1.484375 -3.625 L 5.640625 -5.0625 L 5.640625 -5.109375 Z M 1.65625 -2.84375 C 1.863281 -2.257812 2.21875 -1.800781 2.71875 -1.46875 C 3.21875 -1.144531 3.785156 -0.984375 4.421875 -0.984375 C 5.234375 -0.984375 5.972656 -1.363281 6.640625 -2.125 C 6.734375 -2.226562 6.882812 -2.175781 7.09375 -1.96875 C 7.101562 -1.957031 7.097656 -1.9375 7.078125 -1.90625 C 6.523438 -1.132812 6.09375 -0.640625 5.78125 -0.421875 C 5.257812 -0.0546875 4.65625 0.125 3.96875 0.125 C 3.5 0.125 3.046875 0.0351562 2.609375 -0.140625 C 1.710938 -0.535156 1.078125 -1.164062 0.703125 -2.03125 C 0.503906 -2.46875 0.40625 -2.988281 0.40625 -3.59375 C 0.40625 -4.195312 0.554688 -4.78125 0.859375 -5.34375 C 1.171875 -5.90625 1.613281 -6.347656 2.1875 -6.671875 C 2.769531 -6.992188 3.4375 -7.15625 4.1875 -7.15625 C 5.113281 -7.15625 5.9375 -6.726562 6.65625 -5.875 C 7.007812 -5.445312 7.1875 -5.101562 7.1875 -4.84375 Z M 1.65625 -2.84375 "/></g></g></g></svg>